<svg width="64" height="64" viewBox="0 0 64 64" fill="none" xmlns="http://www.w3.org/2000/svg">
<path d="M10.3694 37.2583C12.2207 37.1768 13.6838 37.632 15.1951 38.4739C16.0918 38.8473 16.6887 38.8617 17.6975 38.8631C17.8712 38.8642 18.0449 38.8653 18.2239 38.8665C18.8039 38.8694 19.3838 38.8679 19.9638 38.8664C20.3804 38.8676 20.7971 38.8691 21.2138 38.8708C22.11 38.874 23.0062 38.8753 23.9024 38.875C25.3196 38.8745 26.7368 38.8787 28.1539 38.8835C30.9063 38.8922 33.6586 38.8961 36.411 38.8996C39.9144 38.9044 43.4179 38.9115 46.9213 38.9223C48.3301 38.9266 49.7388 38.9286 51.1476 38.9289C52.0239 38.9295 52.9002 38.9318 53.7765 38.9345C54.1827 38.9354 54.589 38.9356 54.9953 38.935C55.5501 38.9343 56.1047 38.9362 56.6595 38.9386C56.9699 38.939 57.2803 38.9393 57.6001 38.9397C58.4306 38.9939 59.0108 39.1172 59.7511 39.4172C60.4758 40.2487 60.5 41.1973 60.2823 42.1722C59.6105 42.8677 59.1995 43.1666 58.1578 43.4437C57.5933 43.4635 57.0282 43.4701 56.4632 43.4701C56.2905 43.4704 56.1178 43.4707 55.9399 43.471C55.3601 43.4718 54.7804 43.4711 54.2006 43.4704C53.7853 43.4707 53.3701 43.4711 52.9548 43.4716C52.0597 43.4726 51.1646 43.473 50.2696 43.473C48.8533 43.4732 47.4371 43.4759 46.0209 43.4792C45.6623 43.4801 45.6623 43.4801 45.2965 43.4809C44.8077 43.482 44.3189 43.4831 43.83 43.4843C40.5328 43.4917 37.2355 43.4973 33.9382 43.4968C31.7143 43.4965 29.4906 43.4999 27.2667 43.5075C26.0902 43.5115 24.9138 43.5134 23.7373 43.5108C22.6298 43.5084 21.5224 43.5109 20.4148 43.5171C20.0093 43.5185 19.6038 43.5181 19.1983 43.5158C16.3945 43.4823 16.3945 43.4823 13.9425 44.4676C12.8068 45.1727 10.9978 45.1807 9.61836 45.0911C7.61939 44.8076 6.12502 44.2671 4.78018 43.0199C4.05959 42.1573 3.84371 41.5165 4.08413 40.4801C4.4717 39.4764 5.09114 38.8196 6.19927 38.2492C7.59829 37.6624 8.80078 37.3729 10.3694 37.2583Z" fill="#50CDE9"/>
<path d="M8.17908 54.6472C8.39227 54.6467 8.60546 54.6462 8.82511 54.6457C9.54189 54.6444 10.2587 54.6445 10.9754 54.6447C11.4884 54.6441 12.0013 54.6434 12.5143 54.6426C13.9096 54.6407 15.3049 54.6402 16.7002 54.6401C17.8643 54.6399 19.0285 54.6391 20.1926 54.6383C22.9391 54.6366 25.6855 54.6361 28.432 54.6362C31.2663 54.6364 34.1005 54.6341 36.9348 54.6308C39.3669 54.628 41.7991 54.6269 44.2312 54.627C45.6843 54.6271 47.1374 54.6265 48.5906 54.6242C49.9574 54.6222 51.3243 54.6221 52.6912 54.6237C53.1928 54.6239 53.6945 54.6234 54.1961 54.6221C54.8811 54.6205 55.566 54.6215 56.2509 54.6231C56.5485 54.6215 56.5485 54.6215 56.852 54.6198C58.0044 54.6259 58.9556 54.7337 60.0166 55.0993C60.7183 55.9028 60.5457 56.6967 60.4108 57.6242C60.2822 58.0662 60.2822 58.0662 59.7511 58.702C58.6346 59.1937 57.5301 59.1861 56.2864 59.1811C55.9657 59.1823 55.9657 59.1823 55.6385 59.1835C54.9227 59.1857 54.207 59.1849 53.4912 59.184C52.9777 59.185 52.4643 59.1861 51.9508 59.1873C50.5567 59.1902 49.1625 59.1903 47.7684 59.1897C46.6048 59.1895 45.4413 59.1906 44.2778 59.1916C41.5333 59.1939 38.7889 59.194 36.0445 59.1927C33.212 59.1915 30.3796 59.1941 27.5471 59.1986C25.1158 59.2023 22.6846 59.2036 20.2534 59.2029C18.801 59.2025 17.3487 59.2031 15.8963 59.206C14.5309 59.2087 13.1656 59.2083 11.8002 59.2055C11.2989 59.205 10.7976 59.2056 10.2962 59.2073C9.61234 59.2095 8.92863 59.2078 8.24474 59.2051C7.94656 59.2075 7.94656 59.2075 7.64237 59.2099C6.1876 59.1978 5.35147 58.9146 4.29878 58.1325C3.83412 57.4104 3.77141 56.7293 3.98343 55.947C5.21435 54.6993 6.30233 54.6441 8.17908 54.6472Z" fill="#1F92AC"/>
<path d="M53.859 45.4834C54.1221 45.4805 54.3852 45.4776 54.6563 45.4745C56.2063 45.4825 57.3136 45.6201 58.6889 46.1987L58.4233 46.8344C57.7052 47.0255 57.2235 47.0823 56.4804 47.106C56.1447 47.1177 56.1447 47.1177 55.8022 47.1296C55.5663 47.1371 55.3303 47.1446 55.0872 47.1523C53.2696 47.2166 51.4678 47.3019 49.6598 47.4702V47.894C49.9548 47.902 49.9548 47.902 50.2557 47.9101C51.1581 47.9349 52.0604 47.9608 52.9627 47.9868C53.272 47.9951 53.5813 48.0034 53.9 48.012C54.7886 48.038 55.6763 48.0701 56.5644 48.106C56.8085 48.1142 57.0526 48.1224 57.3041 48.1309C57.9513 48.1664 57.9513 48.1664 58.9544 48.3179C59.2827 48.7512 59.2827 48.7512 59.4855 49.1656C58.8396 49.681 58.6434 49.6501 57.7553 49.6772C57.5121 49.6854 57.2689 49.6936 57.0184 49.702C56.759 49.7086 56.4996 49.7151 56.2324 49.7219C55.97 49.7299 55.7076 49.7379 55.4372 49.7462C53.4224 49.804 51.4103 49.826 49.3943 49.8013L49.6598 50.4371C51.4491 51.02 53.4476 51.0549 55.3528 51.2053L56.402 51.2914C57.2527 51.361 58.1035 51.4294 58.9544 51.4967L59.22 52.3444C57.37 52.7963 55.6367 52.8389 53.7096 52.8344C53.4166 52.8379 53.1236 52.8413 52.8216 52.8448C50.7597 52.8458 48.3633 52.7849 46.5447 51.9118C45.7135 51.6316 45.0217 51.6623 44.12 51.6696C43.9344 51.6703 43.7488 51.6711 43.5575 51.6719C43.1475 51.6739 42.7375 51.6768 42.3275 51.6805C41.4112 51.6885 40.4949 51.6916 39.5786 51.6949C39.0716 51.6967 38.5646 51.6987 38.0576 51.701C33.0606 51.7217 28.0634 51.6868 23.0666 51.6587C21.354 51.6491 19.6416 51.6407 17.929 51.6352C16.2417 51.6297 14.5544 51.6212 12.8671 51.6105C12.2308 51.6069 11.5944 51.6045 10.9581 51.6032C10.0779 51.6011 9.19798 51.5952 8.31789 51.5883C8.05833 51.5886 7.79878 51.5889 7.53136 51.5892C6.22997 51.5748 5.28998 51.5576 4.24904 50.8609C3.59665 50.08 3.53179 49.4369 3.71792 48.5298C4.19423 47.9343 4.51959 47.5742 5.31128 47.2583C5.73965 47.2255 6.16956 47.2051 6.59952 47.1909C7.0037 47.1775 7.0037 47.1775 7.41605 47.1638C7.85838 47.1513 7.85838 47.1513 8.30965 47.1385C8.77212 47.125 8.77212 47.125 9.24393 47.1112C12.4868 47.0256 15.727 47.0314 18.9712 47.0499C20.04 47.0556 21.1087 47.0594 22.1775 47.0625C25.2101 47.0714 28.2427 47.0817 31.2753 47.0987C32.9642 47.1081 34.6531 47.1145 36.3421 47.1175C37.2299 47.1192 38.1175 47.1229 39.0052 47.1295C39.9904 47.1367 40.9755 47.1385 41.9607 47.1392C42.2492 47.1426 42.5377 47.146 42.8349 47.1495C44.6516 47.1437 45.9363 46.8766 47.5353 46.1987C49.5996 45.5588 51.6698 45.4983 53.859 45.4834Z" fill="#4CCBE8"/>
<path d="M19.3634 31.1239C20.3328 31.1244 21.3022 31.1239 22.2716 31.1236C23.9013 31.1232 25.531 31.1237 27.1606 31.1247C28.8091 31.1257 30.4575 31.1257 32.1059 31.1247C47.6975 31.1153 47.6975 31.1153 53.6522 31.21C54.0857 31.2167 54.5193 31.2225 54.9528 31.2272C55.5273 31.2339 56.1014 31.2446 56.6758 31.2567C56.9855 31.2621 57.2952 31.2675 57.6142 31.273C58.5206 31.3752 59.028 31.5562 59.7511 32C60.1868 32.8011 60.3235 33.2968 60.1329 34.1589C59.6646 34.8901 59.2979 35.1656 58.4233 35.6027C57.625 35.7282 56.84 35.7308 56.0281 35.7318C55.8001 35.7353 55.5721 35.7388 55.3372 35.7424C54.6121 35.7527 53.8871 35.7572 53.1619 35.7616C52.669 35.7676 52.1761 35.7739 51.6832 35.7806C50.4776 35.7963 49.2722 35.8068 48.0665 35.8146V36.4503H47.5354V35.6027H36.1163V36.4503H35.5852V35.6027H24.1661V36.4503H23.6349V35.6027H12.2159L12.4814 36.2384L11.6847 36.4503V35.8146C11.4077 35.8133 11.4077 35.8133 11.125 35.8119C10.2823 35.8049 9.44011 35.79 8.5976 35.7748C8.30697 35.7736 8.01634 35.7724 7.7169 35.7711C5.29565 35.7184 5.29565 35.7184 4.32582 35.0886C3.66139 34.4923 3.47328 34.3069 3.38599 33.5232C3.46112 32.7587 3.67695 32.3968 4.24906 31.7881C5.08454 31.3436 5.32564 31.3056 6.28604 31.2775C6.66736 31.2654 6.66736 31.2654 7.05639 31.253C7.33473 31.2466 7.61308 31.2402 7.89986 31.2336C8.1939 31.2256 8.48793 31.2176 8.79088 31.2094C12.3143 31.1229 15.8386 31.1212 19.3634 31.1239Z" fill="#168DA8"/>
<path d="M27.6183 0.847687C30.4831 1.13846 32.6409 2.58179 34.7885 4.02649C35.0058 4.15735 35.2232 4.2882 35.4472 4.42302C37.7633 5.98478 39.2811 8.15975 40.3652 10.3841C40.5003 10.6476 40.5003 10.6476 40.6381 10.9164C41.4436 12.7086 41.631 14.9283 40.7802 16.7285C39.7292 18.2881 37.8892 19.4106 35.8134 19.9868C32.5318 20.6164 29.2428 20.4281 26.2605 19.1209C23.8625 17.8768 23.8625 17.8768 23.3694 16.7947V16.106C23.3571 15.9284 23.3447 15.7508 23.332 15.5679C23.2327 13.5127 24.0018 12.1628 25.4773 10.5166C28.2232 7.3381 28.4194 4.59196 27.6183 0.847687Z" fill="#1C90AA"/>
<path d="M42.2239 21.404C43.7777 22.5161 44.5833 23.5985 44.7302 25.2715C44.6811 26.6373 43.9896 27.8278 42.7903 28.7988C41.1772 29.8282 39.5157 30.2377 37.4439 30.0927C35.3982 29.7307 33.8243 28.735 32.6804 27.351C31.9651 25.7058 32.0629 24.4785 32.9293 22.8874C33.74 21.8176 34.9563 21.0061 36.448 20.6093C38.5912 20.4538 40.3676 20.4219 42.2239 21.404Z" fill="#2294AD"/>
<path d="M27.663 20.9412C29.2874 21.6251 30.3807 22.725 30.9514 24.1018C31.2344 25.243 31.1645 26.3719 30.4763 27.4098C29.3862 28.6168 28.034 29.6613 26.1723 29.9983C24.0405 30.2017 22.4346 29.953 20.6941 28.9172C19.2844 27.8889 18.6913 26.8257 18.4897 25.3245C18.7037 23.7306 19.4583 22.4715 20.9794 21.404C23.2171 20.2879 25.1648 20.1905 27.663 20.9412Z" fill="#1E92AC"/>
<path d="M8.17902 54.6472C8.39221 54.6467 8.6054 54.6462 8.82505 54.6457C9.54183 54.6444 10.2586 54.6445 10.9754 54.6447C11.4883 54.6441 12.0013 54.6434 12.5142 54.6426C13.9095 54.6407 15.3048 54.6402 16.7001 54.6401C17.8643 54.6399 19.0284 54.6391 20.1926 54.6383C22.939 54.6366 25.6855 54.6361 28.432 54.6362C31.2662 54.6364 34.1005 54.6341 36.9348 54.6308C39.3669 54.628 41.799 54.6269 44.2311 54.627C45.6843 54.6271 47.1374 54.6265 48.5905 54.6242C49.9574 54.6222 51.3242 54.6221 52.6911 54.6237C53.1928 54.6239 53.6944 54.6234 54.1961 54.6221C54.881 54.6205 55.5659 54.6215 56.2509 54.6231C56.5484 54.6215 56.5484 54.6215 56.852 54.6198C58.0063 54.6259 58.9432 54.7605 60.0166 55.0993L59.751 55.7351L58.9543 55.3113C58.2413 55.2686 57.5555 55.2508 56.8422 55.2523C56.6246 55.251 56.407 55.2498 56.1829 55.2485C55.4514 55.2449 54.7199 55.2443 53.9884 55.2437C53.465 55.2417 52.9416 55.2396 52.4182 55.2373C50.995 55.2315 49.5719 55.2282 48.1487 55.2255C46.6622 55.2222 45.1758 55.2165 43.6893 55.2111C40.8735 55.2012 38.0576 55.1934 35.2418 55.1864C32.0365 55.1783 28.8312 55.1678 25.6259 55.1571C19.0313 55.1352 12.4368 55.1163 5.84229 55.0993L5.60992 55.4967C5.31117 55.947 5.31117 55.947 4.78005 56.3709C4.6737 56.8631 4.58361 57.3579 4.51449 57.8543H5.04561L4.78005 58.4901C4.07753 57.9295 3.97843 57.6114 3.85059 56.808C3.88333 56.0708 3.98577 55.9446 4.59747 55.3245C5.7605 54.6122 6.77383 54.6449 8.17902 54.6472Z" fill="#6BBACB"/>
<path d="M5.04565 51.0728H45.9419V51.4967C37.9636 51.7294 29.9944 51.7181 22.012 51.6573C20.2819 51.6442 18.5517 51.6344 16.8216 51.6254C15.4782 51.6179 14.1348 51.6085 12.7914 51.5986C12.1522 51.5941 11.513 51.5903 10.8738 51.5872C9.99161 51.5827 9.10952 51.5755 8.22738 51.5676C7.96497 51.5668 7.70255 51.566 7.43217 51.5652L6.71018 51.5571C6.39916 51.555 6.39916 51.555 6.08185 51.5527C5.57677 51.4967 5.57677 51.4967 5.04565 51.0728Z" fill="#77D8ED"/>
<path d="M58.4231 31.5762C59.0538 31.6954 59.0538 31.6954 59.7509 32C60.1926 32.7968 60.3229 33.2988 60.1327 34.159C59.6644 34.8901 59.2977 35.1656 58.4231 35.6027C57.6248 35.7282 56.8398 35.7308 56.0279 35.7318C55.7999 35.7353 55.5719 35.7388 55.337 35.7424C54.6119 35.7527 53.8869 35.7572 53.1617 35.7616C52.6688 35.7676 52.1759 35.7739 51.683 35.7806C50.4774 35.7963 49.2719 35.8068 48.0663 35.8146V36.4503H47.5352V35.6027H36.1161V36.4503H35.5849V35.6027H24.1659V36.4503H23.6347V35.6027H12.2156L12.4812 36.2384L11.6845 36.4503V35.8146C11.4956 35.8115 11.3067 35.8084 11.1121 35.8052C10.2571 35.7894 9.40242 35.769 8.5476 35.7484C8.25029 35.7436 7.95298 35.7388 7.64667 35.7339C7.21919 35.7226 7.21919 35.7226 6.78308 35.7111C6.52024 35.7056 6.2574 35.7 5.98659 35.6943C5.22483 35.591 4.98419 35.444 4.5144 34.9669C4.77612 35.0013 5.03783 35.0356 5.30747 35.071C6.38982 35.1936 7.46393 35.2096 8.55565 35.2086C8.76795 35.2092 8.98026 35.2098 9.19899 35.2105C9.90638 35.2123 10.6137 35.2127 11.3211 35.213C11.8299 35.2139 12.3386 35.215 12.8473 35.2162C14.2261 35.2189 15.6048 35.2203 16.9836 35.2212C17.8448 35.2219 18.7061 35.2227 19.5674 35.2237C22.262 35.2266 24.9566 35.2286 27.6512 35.2294C30.7625 35.2304 33.8737 35.2341 36.985 35.2403C39.3905 35.2448 41.796 35.247 44.2016 35.2473C45.6383 35.2475 47.0751 35.2487 48.5118 35.2525C49.8617 35.256 51.2116 35.2565 52.5615 35.2546C53.0574 35.2544 53.5533 35.2554 54.0491 35.2575C54.7249 35.2601 55.4006 35.2589 56.0764 35.2567C56.3721 35.2593 56.3721 35.2593 56.6738 35.2619C57.5039 35.2555 58.0783 35.2136 58.8123 34.8918C59.2879 34.5513 59.2879 34.5513 59.3235 33.971C59.3112 33.7621 59.2989 33.5531 59.2862 33.3378C59.2766 33.1271 59.267 32.9165 59.2571 32.6995C59.2448 32.5386 59.2325 32.3777 59.2198 32.2119H58.6887L58.4231 31.5762Z" fill="#78BECE"/>
<path d="M19.3633 31.1238C20.3328 31.1244 21.3022 31.1239 22.2716 31.1235C23.9013 31.1232 25.5309 31.1237 27.1606 31.1247C28.809 31.1257 30.4575 31.1257 32.1059 31.1247C49.7657 31.1139 49.7657 31.1139 58.4233 31.3642V31.5761C58.1563 31.5767 57.8893 31.5772 57.6141 31.5777C51.1203 31.5901 44.6265 31.6062 38.1328 31.6261C34.9924 31.6356 31.8521 31.644 28.7118 31.6496C25.975 31.6544 23.2383 31.6615 20.5016 31.6712C19.0521 31.6763 17.6028 31.6803 16.1533 31.6816C14.7895 31.6829 13.4257 31.6871 12.0619 31.6936C11.561 31.6955 11.0601 31.6963 10.5592 31.6959C9.87578 31.6955 9.19258 31.6991 8.50921 31.7036C8.31056 31.7025 8.1119 31.7015 7.90723 31.7005C6.40925 31.7168 5.56332 32.0108 4.5146 32.8477C4.45011 33.3648 4.45011 33.3648 4.48141 33.9338C4.4862 34.1266 4.49099 34.3195 4.49593 34.5182C4.50209 34.6663 4.50826 34.8143 4.5146 34.9669C3.78192 34.4918 3.47767 34.2548 3.33618 33.4967C3.46631 32.7698 3.6994 32.3729 4.24904 31.7881C5.08453 31.3436 5.32562 31.3056 6.28602 31.2775C6.66735 31.2654 6.66735 31.2654 7.05638 31.253C7.33472 31.2466 7.61307 31.2402 7.89985 31.2335C8.19388 31.2256 8.48792 31.2176 8.79086 31.2094C12.3143 31.1229 15.8386 31.1212 19.3633 31.1238Z" fill="#6EBBCC"/>
<path d="M19.1947 47.0249C20.1304 47.0262 21.066 47.0263 22.0017 47.0266C23.7621 47.0272 25.5225 47.0289 27.2829 47.0311C29.2919 47.0335 31.3009 47.0346 33.3099 47.0357C37.432 47.0379 41.5542 47.0416 45.6763 47.0464L45.4107 47.4702C45.2108 47.4707 45.0108 47.4712 44.8048 47.4717C39.9398 47.4843 35.0749 47.5003 30.21 47.5202C27.8574 47.5297 25.5048 47.538 23.1521 47.5436C21.1016 47.5485 19.0511 47.5556 17.0007 47.5653C15.9149 47.5704 14.8291 47.5743 13.7433 47.5757C12.7213 47.5769 11.6993 47.5812 10.6772 47.5877C10.3022 47.5895 9.92722 47.5903 9.55221 47.5899C9.03983 47.5896 8.52745 47.5935 8.01509 47.5976C7.72844 47.5986 7.44178 47.5996 7.14645 47.6006C6.00813 47.7206 5.31545 48.1025 4.51448 48.7417C4.43108 49.6402 4.42786 50.3026 5.0456 51.0728C4.24892 50.8609 4.24892 50.8609 3.7178 50.2252C3.53927 48.753 3.53927 48.753 4.21573 47.9073C4.99178 47.3062 5.4235 47.2296 6.47393 47.192C6.71798 47.1832 6.96203 47.1744 7.21348 47.1653C7.48209 47.1571 7.7507 47.1489 8.02745 47.1404C8.45189 47.127 8.45189 47.127 8.88491 47.1133C12.3209 47.0149 15.757 47.019 19.1947 47.0249Z" fill="#78D8ED"/>
<path d="M27.6182 0.847687L29.2116 1.05961L28.7966 1.32451L28.4149 1.69537C28.4984 1.9789 28.5883 2.26124 28.6805 2.54305C28.846 4.98203 28.5033 7.0707 27.3527 9.32451H26.8215C26.8729 9.21141 26.9242 9.09832 26.9771 8.98179C28.227 6.12779 28.2521 3.81048 27.6182 0.847687Z" fill="#5DB2C5"/>
<path d="M6.37353 31.7881L5.74282 32.0795C5.0359 32.3993 5.0359 32.3993 4.5146 32.8477C4.45011 33.3648 4.45011 33.3648 4.48141 33.9338C4.4862 34.1266 4.49099 34.3195 4.49593 34.5182C4.50209 34.6663 4.50826 34.8143 4.5146 34.9669C3.78192 34.4918 3.47767 34.2548 3.33618 33.4967C3.46707 32.7655 3.67174 32.3639 4.24904 31.7881C5.02969 31.5067 5.57147 31.5823 6.37353 31.7881Z" fill="#4EABC0"/>
<path d="M26.2904 20.5563V20.7682C26.0949 20.781 25.8994 20.7939 25.698 20.8071C25.3093 20.8337 25.3093 20.8337 24.9128 20.8609C24.6571 20.8781 24.4013 20.8953 24.1379 20.9131C23.4214 20.9756 22.7387 21.046 22.0414 21.192C21.7426 21.5805 21.7426 21.5805 21.5103 22.0397C20.9958 22.5166 20.9958 22.5166 20.448 22.8874H19.6514C20.2986 21.67 21.6377 21.0296 23.0871 20.4636C24.1932 20.3014 25.1879 20.4116 26.2904 20.5563Z" fill="#64B4C8"/>
<path d="M20.9792 28.8212L22.8382 29.0331V29.457C24.9769 29.5282 26.6882 29.4679 28.6805 28.8212C27.531 29.8303 26.3471 30.0101 24.6888 30.1151C23.4278 30.0793 22.331 29.7498 21.2448 29.245L20.9792 28.8212Z" fill="#7BC0D2"/>
<path d="M12.2158 37.298L12.7469 37.7219C12.3099 37.7337 12.3099 37.7337 11.8641 37.7459C11.4779 37.7598 11.0917 37.7739 10.7054 37.7881C10.5139 37.7929 10.3224 37.7976 10.125 37.8026C8.89687 37.8518 8.22727 38.0421 7.17015 38.5695C6.55604 38.5033 6.55604 38.5033 6.10791 38.3576C8.07807 37.4997 9.94882 37.0846 12.2158 37.298Z" fill="#8EDEEE"/>
<path d="M38.7718 26.702C39.2167 26.7626 39.6598 26.8329 40.0996 26.9139C40.3651 27.5497 40.3651 27.5497 40.0996 27.9735H38.7718C38.6703 27.6225 38.5822 27.269 38.5062 26.9139L38.7718 26.702ZM25.2282 26.702L26.556 26.9139L26.2904 27.9735L24.9626 27.7616L25.2282 26.702Z" fill="black"/>
<path d="M35.0539 21.192L35.585 21.404C35.3439 21.6439 35.0999 21.8819 34.8548 22.1192C34.7192 22.252 34.5836 22.3847 34.444 22.5215C33.9699 22.905 33.5457 23.0996 32.9294 23.3113C33.3097 22.2493 33.9876 21.8395 35.0539 21.192Z" fill="#57B0C3"/>
<path d="M4.77997 39.4172C5.16643 40.034 4.94864 40.468 4.79657 41.1391C4.74488 41.3713 4.69319 41.6035 4.63993 41.8427C4.59851 42.0214 4.55709 42.2 4.51441 42.3841C3.95328 41.7124 3.91612 41.6411 4.04968 40.9006L4.12022 40.4636C4.24885 40.053 4.24885 40.053 4.77997 39.4172Z" fill="#81DBEF"/>
<path d="M27.6182 0.847687L29.2115 1.05961C29.0811 1.14402 28.9507 1.22843 28.8163 1.3154C28.3002 1.80391 28.3308 2.0598 28.3651 2.68875C28.3758 2.94567 28.3758 2.94567 28.3868 3.20779C28.3961 3.33809 28.4053 3.4684 28.4148 3.60265H28.1493L27.6182 0.847687Z" fill="#79C2D2"/>
<path d="M20.9792 28.8212L22.8382 29.0331V29.457L23.3693 29.6689C21.8985 29.5385 21.8985 29.5385 21.278 29.1258L20.9792 28.8212Z" fill="#60B4C7"/>
<path d="M58.4233 54.8874H59.7511L60.0167 55.7351L58.4233 55.0993V54.8874Z" fill="#90C3CE"/>
</svg>
