<svg width="96" height="96" viewBox="0 0 96 96" fill="none" xmlns="http://www.w3.org/2000/svg">
<rect x="1.5" y="1.5" width="93" height="93" rx="46.5" fill="#94B8D7"/>
<rect x="1.5" y="1.5" width="93" height="93" rx="46.5" stroke="#3F9BBF" stroke-width="3"/>
<mask id="path-2-outside-1_66_25" maskUnits="userSpaceOnUse" x="1.5" y="28" width="91" height="40" fill="black">
<rect fill="white" x="1.5" y="28" width="91" height="40"/>
<path d="M22.18 64.33C21.14 64.33 20.13 64.18 19.15 63.88C18.19 63.58 17.25 63.21 16.33 62.77C15.41 62.31 14.53 61.85 13.69 61.39C12.87 60.93 12.09 60.55 11.35 60.25C10.61 59.95 9.92 59.8 9.28 59.8C8.96 59.8 8.69 59.89 8.47 60.07C8.25 60.23 8.14 60.48 8.14 60.82C8.14 61.14 8.31 61.44 8.65 61.72C9.01 61.98 9.46 62.11 10 62.11C10.38 62.11 10.74 62.01 11.08 61.81C11.42 61.61 11.73 61.28 12.01 60.82C12.31 60.34 12.59 59.71 12.85 58.93L17.26 45.79C17.92 43.79 18.66 42.03 19.48 40.51C20.3 38.99 21.18 37.72 22.12 36.7C23.06 35.66 24.07 34.88 25.15 34.36C26.23 33.82 27.36 33.55 28.54 33.55C29.5 33.55 30.35 33.74 31.09 34.12C31.85 34.48 32.44 34.99 32.86 35.65C33.3 36.31 33.52 37.07 33.52 37.93C33.52 39.03 33.27 40.05 32.77 40.99C32.29 41.91 31.6 42.72 30.7 43.42C29.82 44.1 28.78 44.63 27.58 45.01C26.38 45.37 25.07 45.55 23.65 45.55C22.11 45.55 20.69 45.45 19.39 45.25C18.09 45.05 16.84 44.73 15.64 44.29C14.46 43.83 13.26 43.24 12.04 42.52C11.74 42.34 11.57 42.11 11.53 41.83C11.51 41.55 11.61 41.23 11.83 40.87C12.01 40.55 12.22 40.37 12.46 40.33C12.72 40.27 13 40.33 13.3 40.51C14.28 41.05 15.3 41.52 16.36 41.92C17.42 42.3 18.55 42.59 19.75 42.79C20.95 42.99 22.26 43.09 23.68 43.09C24.7 43.09 25.64 42.96 26.5 42.7C27.36 42.44 28.11 42.09 28.75 41.65C29.39 41.19 29.88 40.66 30.22 40.06C30.58 39.44 30.76 38.76 30.76 38.02C30.76 37.62 30.67 37.28 30.49 37C30.31 36.7 30.04 36.48 29.68 36.34C29.32 36.18 28.91 36.1 28.45 36.1C27.57 36.1 26.73 36.33 25.93 36.79C25.13 37.23 24.36 37.89 23.62 38.77C22.88 39.63 22.18 40.7 21.52 41.98C20.88 43.26 20.27 44.75 19.69 46.45L15.4 59.23C14.94 60.59 14.43 61.66 13.87 62.44C13.33 63.2 12.73 63.73 12.07 64.03C11.41 64.35 10.69 64.51 9.91 64.51C9.05 64.51 8.27 64.34 7.57 64C6.89 63.64 6.35 63.18 5.95 62.62C5.57 62.06 5.38 61.47 5.38 60.85C5.38 60.13 5.54 59.52 5.86 59.02C6.18 58.5 6.61 58.1 7.15 57.82C7.71 57.54 8.33 57.4 9.01 57.4C9.91 57.4 10.8 57.55 11.68 57.85C12.56 58.13 13.44 58.49 14.32 58.93C15.2 59.37 16.08 59.82 16.96 60.28C17.86 60.72 18.76 61.09 19.66 61.39C20.58 61.67 21.52 61.81 22.48 61.81C23.58 61.81 24.56 61.61 25.42 61.21C26.28 60.79 27.07 60.2 27.79 59.44C28.51 58.66 29.19 57.73 29.83 56.65C30.01 56.31 30.24 56.12 30.52 56.08C30.8 56.04 31.13 56.11 31.51 56.29C31.83 56.49 32.03 56.71 32.11 56.95C32.21 57.19 32.18 57.46 32.02 57.76C31.12 59.28 30.18 60.52 29.2 61.48C28.22 62.44 27.15 63.16 25.99 63.64C24.85 64.1 23.58 64.33 22.18 64.33ZM43.2496 64.57C42.0496 64.57 40.9696 64.38 40.0096 64C39.0496 63.6 38.2296 63.05 37.5496 62.35C36.8696 61.65 36.3496 60.84 35.9896 59.92C35.6296 58.98 35.4496 57.98 35.4496 56.92C35.4496 55.48 35.6696 54.23 36.1096 53.17C36.5696 52.11 37.1796 51.19 37.9396 50.41C38.7196 49.61 39.5896 48.92 40.5496 48.34C41.5296 47.76 42.5396 47.24 43.5796 46.78C43.3196 46.24 43.0896 45.71 42.8896 45.19C42.6896 44.65 42.5396 44.11 42.4396 43.57C42.3396 43.01 42.2896 42.46 42.2896 41.92C42.2896 40.76 42.4796 39.67 42.8596 38.65C43.2396 37.63 43.7696 36.74 44.4496 35.98C45.1496 35.22 45.9696 34.63 46.9096 34.21C47.8696 33.77 48.9296 33.55 50.0896 33.55C50.9496 33.55 51.7396 33.69 52.4596 33.97C53.1996 34.23 53.8396 34.61 54.3796 35.11C54.9196 35.59 55.3396 36.17 55.6396 36.85C55.9396 37.53 56.0896 38.28 56.0896 39.1C56.0896 40.08 55.9296 40.95 55.6096 41.71C55.2896 42.47 54.8396 43.15 54.2596 43.75C53.6996 44.33 53.0396 44.85 52.2796 45.31C51.5396 45.77 50.7396 46.19 49.8796 46.57C49.0196 46.95 48.1496 47.33 47.2696 47.71L52.8796 56.65C53.6796 55.59 54.4196 54.4 55.0996 53.08C55.7796 51.76 56.3796 50.32 56.8996 48.76C56.9996 48.44 57.1696 48.22 57.4096 48.1C57.6496 47.96 57.9896 47.89 58.4296 47.89C58.8896 47.89 59.2096 47.97 59.3896 48.13C59.5696 48.27 59.6096 48.49 59.5096 48.79C58.8496 50.81 58.0696 52.66 57.1696 54.34C56.2896 56 55.3096 57.47 54.2296 58.75L56.6596 62.65C56.8396 62.93 56.8896 63.19 56.8096 63.43C56.7496 63.65 56.5096 63.9 56.0896 64.18C55.7096 64.46 55.3796 64.59 55.0996 64.57C54.8396 64.57 54.6296 64.43 54.4696 64.15L52.3096 60.73C50.9496 61.99 49.4996 62.95 47.9596 63.61C46.4196 64.25 44.8496 64.57 43.2496 64.57ZM43.5496 62.08C44.7896 62.08 46.0496 61.79 47.3296 61.21C48.6096 60.63 49.8396 59.79 51.0196 58.69L44.7496 48.76C43.8696 49.16 43.0396 49.61 42.2596 50.11C41.4796 50.59 40.7896 51.14 40.1896 51.76C39.5896 52.36 39.1096 53.07 38.7496 53.89C38.4096 54.69 38.2396 55.61 38.2396 56.65C38.2396 57.73 38.4496 58.68 38.8696 59.5C39.2896 60.32 39.8896 60.96 40.6696 61.42C41.4696 61.86 42.4296 62.08 43.5496 62.08ZM46.0696 45.76C46.8496 45.46 47.5896 45.15 48.2896 44.83C49.0096 44.51 49.6796 44.17 50.2996 43.81C50.9196 43.45 51.4496 43.06 51.8896 42.64C52.3496 42.2 52.6996 41.72 52.9396 41.2C53.1996 40.66 53.3296 40.05 53.3296 39.37C53.3296 38.67 53.1896 38.07 52.9096 37.57C52.6296 37.07 52.2296 36.69 51.7096 36.43C51.1896 36.15 50.5696 36.01 49.8496 36.01C48.8096 36.01 47.9296 36.26 47.2096 36.76C46.5096 37.26 45.9696 37.94 45.5896 38.8C45.2296 39.66 45.0496 40.63 45.0496 41.71C45.0496 42.19 45.0896 42.66 45.1696 43.12C45.2496 43.58 45.3696 44.03 45.5296 44.47C45.6896 44.91 45.8696 45.34 46.0696 45.76ZM79.9846 64.57C79.2046 64.57 78.4546 64.48 77.7346 64.3C77.0346 64.14 76.3646 63.91 75.7246 63.61C75.0846 63.29 74.4946 62.92 73.9546 62.5C73.4346 62.08 72.9946 61.64 72.6346 61.18C72.3746 60.8 72.2646 60.48 72.3046 60.22C72.3446 59.94 72.5246 59.66 72.8446 59.38C73.1246 59.16 73.3746 59.06 73.5946 59.08C73.8346 59.1 74.1046 59.26 74.4046 59.56C74.9446 60.06 75.4946 60.49 76.0546 60.85C76.6146 61.21 77.2146 61.49 77.8546 61.69C78.4946 61.87 79.2046 61.96 79.9846 61.96C80.9646 61.96 81.8646 61.81 82.6846 61.51C83.5046 61.19 84.2146 60.75 84.8146 60.19C85.4146 59.61 85.8746 58.91 86.1946 58.09C86.5146 57.27 86.6746 56.36 86.6746 55.36C86.6746 54.6 86.5646 53.85 86.3446 53.11C86.1446 52.35 85.8646 51.61 85.5046 50.89C85.1446 50.17 84.7146 49.45 84.2146 48.73C83.7346 47.99 83.2046 47.25 82.6246 46.51C82.0446 45.77 81.4346 45.01 80.7946 44.23C78.9346 47.11 77.2846 49.61 75.8446 51.73C74.4246 53.85 73.1346 55.65 71.9746 57.13C70.8346 58.59 69.7746 59.8 68.7946 60.76C67.8346 61.7 66.8846 62.43 65.9446 62.95C65.0246 63.47 64.0846 63.83 63.1246 64.03C62.1646 64.23 61.1046 64.33 59.9446 64.33C59.5446 64.33 59.2946 64.22 59.1946 64C59.0946 63.78 59.1146 63.43 59.2546 62.95C59.3546 62.59 59.5246 62.33 59.7646 62.17C59.9846 62.01 60.2846 61.93 60.6646 61.93C61.3646 61.93 62.0246 61.85 62.6446 61.69C63.2646 61.53 63.8946 61.27 64.5346 60.91C65.1746 60.53 65.8446 60.02 66.5446 59.38C67.2446 58.72 68.0146 57.89 68.8546 56.89C69.6946 55.89 70.6146 54.7 71.6146 53.32C72.6346 51.92 73.7746 50.29 75.0346 48.43C76.2946 46.57 77.7046 44.44 79.2646 42.04C78.9646 41.56 78.6846 41.09 78.4246 40.63C78.1846 40.15 77.9646 39.68 77.7646 39.22C77.5846 38.74 77.4446 38.26 77.3446 37.78C77.2446 37.28 77.1946 36.78 77.1946 36.28C77.1946 35.34 77.3846 34.5 77.7646 33.76C78.1446 33.02 78.6646 32.44 79.3246 32.02C79.9846 31.6 80.7446 31.39 81.6046 31.39C82.6646 31.39 83.5346 31.72 84.2146 32.38C84.8946 33.02 85.2346 33.87 85.2346 34.93C85.2346 35.51 85.1346 36.13 84.9346 36.79C84.7346 37.43 84.4146 38.16 83.9746 38.98C83.5546 39.8 82.9846 40.78 82.2646 41.92C82.7046 42.52 83.1746 43.14 83.6746 43.78C84.1946 44.42 84.7246 45.09 85.2646 45.79C85.8046 46.49 86.3146 47.22 86.7946 47.98C87.2946 48.72 87.7346 49.49 88.1146 50.29C88.4946 51.07 88.7946 51.88 89.0146 52.72C89.2546 53.54 89.3746 54.37 89.3746 55.21C89.3746 56.61 89.1446 57.89 88.6846 59.05C88.2446 60.19 87.6046 61.18 86.7646 62.02C85.9246 62.84 84.9246 63.47 83.7646 63.91C82.6246 64.35 81.3646 64.57 79.9846 64.57ZM80.7946 39.64C81.2746 38.84 81.6546 38.17 81.9346 37.63C82.2146 37.07 82.4146 36.58 82.5346 36.16C82.6546 35.74 82.7146 35.36 82.7146 35.02C82.7146 34.62 82.5946 34.3 82.3546 34.06C82.1346 33.82 81.8446 33.7 81.4846 33.7C81.1246 33.7 80.8146 33.8 80.5546 34C80.2946 34.18 80.0946 34.46 79.9546 34.84C79.8146 35.2 79.7446 35.64 79.7446 36.16C79.7446 36.56 79.7846 36.96 79.8646 37.36C79.9646 37.74 80.0846 38.12 80.2246 38.5C80.3846 38.88 80.5746 39.26 80.7946 39.64Z"/>
</mask>
<path d="M22.18 64.33C21.14 64.33 20.13 64.18 19.15 63.88C18.19 63.58 17.25 63.21 16.33 62.77C15.41 62.31 14.53 61.85 13.69 61.39C12.87 60.93 12.09 60.55 11.35 60.25C10.61 59.95 9.92 59.8 9.28 59.8C8.96 59.8 8.69 59.89 8.47 60.07C8.25 60.23 8.14 60.48 8.14 60.82C8.14 61.14 8.31 61.44 8.65 61.72C9.01 61.98 9.46 62.11 10 62.11C10.38 62.11 10.74 62.01 11.08 61.81C11.42 61.61 11.73 61.28 12.01 60.82C12.31 60.34 12.59 59.71 12.85 58.93L17.26 45.79C17.92 43.79 18.66 42.03 19.48 40.51C20.3 38.99 21.18 37.72 22.12 36.7C23.06 35.66 24.07 34.88 25.15 34.36C26.23 33.82 27.36 33.55 28.54 33.55C29.5 33.55 30.35 33.74 31.09 34.12C31.85 34.48 32.44 34.99 32.86 35.65C33.3 36.31 33.52 37.07 33.52 37.93C33.52 39.03 33.27 40.05 32.77 40.99C32.29 41.91 31.6 42.72 30.7 43.42C29.82 44.1 28.78 44.63 27.58 45.01C26.38 45.37 25.07 45.55 23.65 45.55C22.11 45.55 20.69 45.45 19.39 45.25C18.09 45.05 16.84 44.73 15.64 44.29C14.46 43.83 13.26 43.24 12.04 42.52C11.74 42.34 11.57 42.11 11.53 41.83C11.51 41.55 11.61 41.23 11.83 40.87C12.01 40.55 12.22 40.37 12.46 40.33C12.72 40.27 13 40.33 13.3 40.51C14.28 41.05 15.3 41.52 16.36 41.92C17.42 42.3 18.55 42.59 19.75 42.79C20.95 42.99 22.26 43.09 23.68 43.09C24.7 43.09 25.64 42.96 26.5 42.7C27.36 42.44 28.11 42.09 28.75 41.65C29.39 41.19 29.88 40.66 30.22 40.06C30.58 39.44 30.76 38.76 30.76 38.02C30.76 37.62 30.67 37.28 30.49 37C30.31 36.7 30.04 36.48 29.68 36.34C29.32 36.18 28.91 36.1 28.45 36.1C27.57 36.1 26.73 36.33 25.93 36.79C25.13 37.23 24.36 37.89 23.62 38.77C22.88 39.63 22.18 40.7 21.52 41.98C20.88 43.26 20.27 44.75 19.69 46.45L15.4 59.23C14.94 60.59 14.43 61.66 13.87 62.44C13.33 63.2 12.73 63.73 12.07 64.03C11.41 64.35 10.69 64.51 9.91 64.51C9.05 64.51 8.27 64.34 7.57 64C6.89 63.64 6.35 63.18 5.95 62.62C5.57 62.06 5.38 61.47 5.38 60.85C5.38 60.13 5.54 59.52 5.86 59.02C6.18 58.5 6.61 58.1 7.15 57.82C7.71 57.54 8.33 57.4 9.01 57.4C9.91 57.4 10.8 57.55 11.68 57.85C12.56 58.13 13.44 58.49 14.32 58.93C15.2 59.37 16.08 59.82 16.96 60.28C17.86 60.72 18.76 61.09 19.66 61.39C20.58 61.67 21.52 61.81 22.48 61.81C23.58 61.81 24.56 61.61 25.42 61.21C26.28 60.79 27.07 60.2 27.79 59.44C28.51 58.66 29.19 57.73 29.83 56.65C30.01 56.31 30.24 56.12 30.52 56.08C30.8 56.04 31.13 56.11 31.51 56.29C31.83 56.49 32.03 56.71 32.11 56.95C32.21 57.19 32.18 57.46 32.02 57.76C31.12 59.28 30.18 60.52 29.2 61.48C28.22 62.44 27.15 63.16 25.99 63.64C24.85 64.1 23.58 64.33 22.18 64.33ZM43.2496 64.57C42.0496 64.57 40.9696 64.38 40.0096 64C39.0496 63.6 38.2296 63.05 37.5496 62.35C36.8696 61.65 36.3496 60.84 35.9896 59.92C35.6296 58.98 35.4496 57.98 35.4496 56.92C35.4496 55.48 35.6696 54.23 36.1096 53.17C36.5696 52.11 37.1796 51.19 37.9396 50.41C38.7196 49.61 39.5896 48.92 40.5496 48.34C41.5296 47.76 42.5396 47.24 43.5796 46.78C43.3196 46.24 43.0896 45.71 42.8896 45.19C42.6896 44.65 42.5396 44.11 42.4396 43.57C42.3396 43.01 42.2896 42.46 42.2896 41.92C42.2896 40.76 42.4796 39.67 42.8596 38.65C43.2396 37.63 43.7696 36.74 44.4496 35.98C45.1496 35.22 45.9696 34.63 46.9096 34.21C47.8696 33.77 48.9296 33.55 50.0896 33.55C50.9496 33.55 51.7396 33.69 52.4596 33.97C53.1996 34.23 53.8396 34.61 54.3796 35.11C54.9196 35.59 55.3396 36.17 55.6396 36.85C55.9396 37.53 56.0896 38.28 56.0896 39.1C56.0896 40.08 55.9296 40.95 55.6096 41.71C55.2896 42.47 54.8396 43.15 54.2596 43.75C53.6996 44.33 53.0396 44.85 52.2796 45.31C51.5396 45.77 50.7396 46.19 49.8796 46.57C49.0196 46.95 48.1496 47.33 47.2696 47.71L52.8796 56.65C53.6796 55.59 54.4196 54.4 55.0996 53.08C55.7796 51.76 56.3796 50.32 56.8996 48.76C56.9996 48.44 57.1696 48.22 57.4096 48.1C57.6496 47.96 57.9896 47.89 58.4296 47.89C58.8896 47.89 59.2096 47.97 59.3896 48.13C59.5696 48.27 59.6096 48.49 59.5096 48.79C58.8496 50.81 58.0696 52.66 57.1696 54.34C56.2896 56 55.3096 57.47 54.2296 58.75L56.6596 62.65C56.8396 62.93 56.8896 63.19 56.8096 63.43C56.7496 63.65 56.5096 63.9 56.0896 64.18C55.7096 64.46 55.3796 64.59 55.0996 64.57C54.8396 64.57 54.6296 64.43 54.4696 64.15L52.3096 60.73C50.9496 61.99 49.4996 62.95 47.9596 63.61C46.4196 64.25 44.8496 64.57 43.2496 64.57ZM43.5496 62.08C44.7896 62.08 46.0496 61.79 47.3296 61.21C48.6096 60.63 49.8396 59.79 51.0196 58.69L44.7496 48.76C43.8696 49.16 43.0396 49.61 42.2596 50.11C41.4796 50.59 40.7896 51.14 40.1896 51.76C39.5896 52.36 39.1096 53.07 38.7496 53.89C38.4096 54.69 38.2396 55.61 38.2396 56.65C38.2396 57.73 38.4496 58.68 38.8696 59.5C39.2896 60.32 39.8896 60.96 40.6696 61.42C41.4696 61.86 42.4296 62.08 43.5496 62.08ZM46.0696 45.76C46.8496 45.46 47.5896 45.15 48.2896 44.83C49.0096 44.51 49.6796 44.17 50.2996 43.81C50.9196 43.45 51.4496 43.06 51.8896 42.64C52.3496 42.2 52.6996 41.72 52.9396 41.2C53.1996 40.66 53.3296 40.05 53.3296 39.37C53.3296 38.67 53.1896 38.07 52.9096 37.57C52.6296 37.07 52.2296 36.69 51.7096 36.43C51.1896 36.15 50.5696 36.01 49.8496 36.01C48.8096 36.01 47.9296 36.26 47.2096 36.76C46.5096 37.26 45.9696 37.94 45.5896 38.8C45.2296 39.66 45.0496 40.63 45.0496 41.71C45.0496 42.19 45.0896 42.66 45.1696 43.12C45.2496 43.58 45.3696 44.03 45.5296 44.47C45.6896 44.91 45.8696 45.34 46.0696 45.76ZM79.9846 64.57C79.2046 64.57 78.4546 64.48 77.7346 64.3C77.0346 64.14 76.3646 63.91 75.7246 63.61C75.0846 63.29 74.4946 62.92 73.9546 62.5C73.4346 62.08 72.9946 61.64 72.6346 61.18C72.3746 60.8 72.2646 60.48 72.3046 60.22C72.3446 59.94 72.5246 59.66 72.8446 59.38C73.1246 59.16 73.3746 59.06 73.5946 59.08C73.8346 59.1 74.1046 59.26 74.4046 59.56C74.9446 60.06 75.4946 60.49 76.0546 60.85C76.6146 61.21 77.2146 61.49 77.8546 61.69C78.4946 61.87 79.2046 61.96 79.9846 61.96C80.9646 61.96 81.8646 61.81 82.6846 61.51C83.5046 61.19 84.2146 60.75 84.8146 60.19C85.4146 59.61 85.8746 58.91 86.1946 58.09C86.5146 57.27 86.6746 56.36 86.6746 55.36C86.6746 54.6 86.5646 53.85 86.3446 53.11C86.1446 52.35 85.8646 51.61 85.5046 50.89C85.1446 50.17 84.7146 49.45 84.2146 48.73C83.7346 47.99 83.2046 47.25 82.6246 46.51C82.0446 45.77 81.4346 45.01 80.7946 44.23C78.9346 47.11 77.2846 49.61 75.8446 51.73C74.4246 53.85 73.1346 55.65 71.9746 57.13C70.8346 58.59 69.7746 59.8 68.7946 60.76C67.8346 61.7 66.8846 62.43 65.9446 62.95C65.0246 63.47 64.0846 63.83 63.1246 64.03C62.1646 64.23 61.1046 64.33 59.9446 64.33C59.5446 64.33 59.2946 64.22 59.1946 64C59.0946 63.78 59.1146 63.43 59.2546 62.95C59.3546 62.59 59.5246 62.33 59.7646 62.17C59.9846 62.01 60.2846 61.93 60.6646 61.93C61.3646 61.93 62.0246 61.85 62.6446 61.69C63.2646 61.53 63.8946 61.27 64.5346 60.91C65.1746 60.53 65.8446 60.02 66.5446 59.38C67.2446 58.72 68.0146 57.89 68.8546 56.89C69.6946 55.89 70.6146 54.7 71.6146 53.32C72.6346 51.92 73.7746 50.29 75.0346 48.43C76.2946 46.57 77.7046 44.44 79.2646 42.04C78.9646 41.56 78.6846 41.09 78.4246 40.63C78.1846 40.15 77.9646 39.68 77.7646 39.22C77.5846 38.74 77.4446 38.26 77.3446 37.78C77.2446 37.28 77.1946 36.78 77.1946 36.28C77.1946 35.34 77.3846 34.5 77.7646 33.76C78.1446 33.02 78.6646 32.44 79.3246 32.02C79.9846 31.6 80.7446 31.39 81.6046 31.39C82.6646 31.39 83.5346 31.72 84.2146 32.38C84.8946 33.02 85.2346 33.87 85.2346 34.93C85.2346 35.51 85.1346 36.13 84.9346 36.79C84.7346 37.43 84.4146 38.16 83.9746 38.98C83.5546 39.8 82.9846 40.78 82.2646 41.92C82.7046 42.52 83.1746 43.14 83.6746 43.78C84.1946 44.42 84.7246 45.09 85.2646 45.79C85.8046 46.49 86.3146 47.22 86.7946 47.98C87.2946 48.72 87.7346 49.49 88.1146 50.29C88.4946 51.07 88.7946 51.88 89.0146 52.72C89.2546 53.54 89.3746 54.37 89.3746 55.21C89.3746 56.61 89.1446 57.89 88.6846 59.05C88.2446 60.19 87.6046 61.18 86.7646 62.02C85.9246 62.84 84.9246 63.47 83.7646 63.91C82.6246 64.35 81.3646 64.57 79.9846 64.57ZM80.7946 39.64C81.2746 38.84 81.6546 38.17 81.9346 37.63C82.2146 37.07 82.4146 36.58 82.5346 36.16C82.6546 35.74 82.7146 35.36 82.7146 35.02C82.7146 34.62 82.5946 34.3 82.3546 34.06C82.1346 33.82 81.8446 33.7 81.4846 33.7C81.1246 33.7 80.8146 33.8 80.5546 34C80.2946 34.18 80.0946 34.46 79.9546 34.84C79.8146 35.2 79.7446 35.64 79.7446 36.16C79.7446 36.56 79.7846 36.96 79.8646 37.36C79.9646 37.74 80.0846 38.12 80.2246 38.5C80.3846 38.88 80.5746 39.26 80.7946 39.64Z" fill="#D9D9D9"/>
<path d="M19.15 63.88L18.2552 66.7434L18.2635 66.746L18.2719 66.7486L19.15 63.88ZM16.33 62.77L14.9884 65.4533L15.0119 65.465L15.0356 65.4764L16.33 62.77ZM13.69 61.39L12.2222 64.0064L12.2356 64.0139L12.2491 64.0213L13.69 61.39ZM11.35 60.25L10.2229 63.0302L10.2229 63.0302L11.35 60.25ZM8.47 60.07L10.2345 62.4962L10.3036 62.446L10.3697 62.3919L8.47 60.07ZM8.65 61.72L6.74288 64.0358L6.81636 64.0963L6.89353 64.152L8.65 61.72ZM11.08 61.81L9.55894 59.2242L9.55894 59.2242L11.08 61.81ZM12.01 60.82L9.46601 59.23L9.45662 59.245L9.4474 59.2602L12.01 60.82ZM12.85 58.93L10.0059 57.9755L10.004 57.9813L12.85 58.93ZM17.26 45.79L20.1041 46.7445L20.1065 46.7373L20.1089 46.7301L17.26 45.79ZM19.48 40.51L16.8397 39.0856L16.8397 39.0856L19.48 40.51ZM22.12 36.7L24.3261 38.733L24.3359 38.7224L24.3456 38.7116L22.12 36.7ZM25.15 34.36L26.4514 37.063L26.4716 37.0533L26.4916 37.0433L25.15 34.36ZM31.09 34.12L29.7196 36.7887L29.7623 36.8106L29.8057 36.8312L31.09 34.12ZM32.86 35.65L30.329 37.2606L30.3461 37.2875L30.3638 37.3141L32.86 35.65ZM32.77 40.99L30.1214 39.5812L30.1158 39.5917L30.1102 39.6023L32.77 40.99ZM30.7 43.42L32.5344 45.7939L32.5418 45.7881L30.7 43.42ZM27.58 45.01L28.442 47.8835L28.4639 47.8769L28.4857 47.87L27.58 45.01ZM19.39 45.25L18.9338 48.2151L18.9338 48.2151L19.39 45.25ZM15.64 44.29L14.5504 47.0851L14.5787 47.0962L14.6072 47.1066L15.64 44.29ZM12.04 42.52L10.4965 45.0925L10.5059 45.0981L10.5152 45.1036L12.04 42.52ZM11.53 41.83L8.53762 42.0437L8.54517 42.1494L8.56015 42.2543L11.53 41.83ZM11.83 40.87L14.3898 42.4343L14.4181 42.3881L14.4447 42.3408L11.83 40.87ZM12.46 40.33L12.9532 43.2892L13.0444 43.274L13.1346 43.2532L12.46 40.33ZM13.3 40.51L11.7565 43.0825L11.8038 43.1109L11.8522 43.1375L13.3 40.51ZM16.36 41.92L15.3008 44.7268L15.3242 44.7356L15.3476 44.744L16.36 41.92ZM26.5 42.7L27.3682 45.5716L27.3682 45.5716L26.5 42.7ZM28.75 41.65L30.4496 44.1221L30.4754 44.1044L30.5009 44.086L28.75 41.65ZM30.22 40.06L27.6256 38.5536L27.6177 38.5672L27.6099 38.581L30.22 40.06ZM30.49 37L27.9175 38.5435L27.9414 38.5833L27.9665 38.6223L30.49 37ZM29.68 36.34L28.4616 39.0814L28.5265 39.1103L28.5927 39.136L29.68 36.34ZM25.93 36.79L27.3758 39.4186L27.4007 39.4049L27.4254 39.3907L25.93 36.79ZM23.62 38.77L25.894 40.7267L25.9051 40.7138L25.9161 40.7008L23.62 38.77ZM21.52 41.98L18.8536 40.6051L18.8451 40.6217L18.8367 40.6384L21.52 41.98ZM19.69 46.45L16.8507 45.4813L16.8483 45.4883L16.846 45.4953L19.69 46.45ZM15.4 59.23L18.2419 60.1912L18.244 60.1847L15.4 59.23ZM13.87 62.44L11.433 60.6904L11.4287 60.6964L11.4245 60.7024L13.87 62.44ZM12.07 64.03L10.8286 61.2989L10.7947 61.3143L10.7612 61.3306L12.07 64.03ZM7.57 64L6.16634 66.6514L6.2124 66.6758L6.25929 66.6985L7.57 64ZM5.95 62.62L3.46757 64.3045L3.48783 64.3344L3.5088 64.3637L5.95 62.62ZM5.86 59.02L8.38681 60.6372L8.40109 60.6149L8.41497 60.5923L5.86 59.02ZM7.15 57.82L5.80836 55.1367L5.78863 55.1466L5.76905 55.1567L7.15 57.82ZM11.68 57.85L10.712 60.6895L10.7411 60.6995L10.7704 60.7088L11.68 57.85ZM16.96 60.28L15.5702 62.9387L15.6061 62.9574L15.6424 62.9752L16.96 60.28ZM19.66 61.39L18.7113 64.236L18.7488 64.2485L18.7865 64.26L19.66 61.39ZM25.42 61.21L26.6852 63.9302L26.711 63.9182L26.7365 63.9057L25.42 61.21ZM27.79 59.44L29.9679 61.5032L29.9812 61.4891L29.9944 61.4748L27.79 59.44ZM29.83 56.65L32.4109 58.1794L32.4476 58.1174L32.4814 58.0537L29.83 56.65ZM30.52 56.08L30.9443 59.0498L30.9443 59.0498L30.52 56.08ZM31.51 56.29L33.1 53.746L32.952 53.6535L32.7943 53.5788L31.51 56.29ZM32.11 56.95L29.264 57.8987L29.2986 58.0027L29.3408 58.1038L32.11 56.95ZM32.02 57.76L34.6014 59.2885L34.6355 59.2309L34.6671 59.1718L32.02 57.76ZM29.2 61.48L27.1007 59.3369L27.1007 59.3369L29.2 61.48ZM25.99 63.64L27.1126 66.4221L27.1248 66.4171L27.1371 66.4121L25.99 63.64ZM22.18 61.33C21.4332 61.33 20.7193 61.223 20.0281 61.0114L18.2719 66.7486C19.5407 67.137 20.8468 67.33 22.18 67.33V61.33ZM20.0448 61.0166C19.2235 60.7599 18.4169 60.4426 17.6244 60.0636L15.0356 65.4764C16.0831 65.9774 17.1565 66.4001 18.2552 66.7434L20.0448 61.0166ZM17.6716 60.0867C16.7826 59.6422 15.9359 59.1995 15.1309 58.7587L12.2491 64.0213C13.1241 64.5005 14.0374 64.9778 14.9884 65.4533L17.6716 60.0867ZM15.1578 58.7736C14.2465 58.2624 13.3523 57.8246 12.4771 57.4698L10.2229 63.0302C10.8277 63.2754 11.4935 63.5976 12.2222 64.0064L15.1578 58.7736ZM12.4771 57.4698C11.4647 57.0593 10.3891 56.8 9.28 56.8V62.8C9.45093 62.8 9.75534 62.8407 10.2229 63.0302L12.4771 57.4698ZM9.28 56.8C8.3598 56.8 7.39362 57.0745 6.57029 57.7481L10.3697 62.3919C10.1969 62.5333 9.997 62.6433 9.78618 62.7136C9.57983 62.7823 9.40282 62.8 9.28 62.8V56.8ZM6.70548 57.6438C5.51565 58.5091 5.14 59.7877 5.14 60.82H11.14C11.14 60.9672 11.1167 61.2488 10.9684 61.5857C10.8107 61.9443 10.5554 62.2628 10.2345 62.4962L6.70548 57.6438ZM5.14 60.82C5.14 62.3401 5.98553 63.4121 6.74288 64.0358L10.5571 59.4042C10.5956 59.4359 10.739 59.5614 10.8776 59.806C11.0277 60.0709 11.14 60.4216 11.14 60.82H5.14ZM6.89353 64.152C7.86691 64.855 8.96827 65.11 10 65.11V59.11C9.96966 59.11 10.0069 59.1063 10.0901 59.1304C10.1783 59.1558 10.2916 59.205 10.4065 59.288L6.89353 64.152ZM10 65.11C10.9358 65.11 11.8184 64.8562 12.6011 64.3958L9.55894 59.2242C9.6015 59.1992 9.66681 59.1681 9.75207 59.1444C9.83799 59.1206 9.92331 59.11 10 59.11V65.11ZM12.6011 64.3958C13.4947 63.8701 14.1249 63.1154 14.5726 62.3798L9.4474 59.2602C9.39569 59.3451 9.37014 59.37 9.38096 59.3585C9.39311 59.3455 9.44975 59.2884 9.55894 59.2242L12.6011 64.3958ZM14.554 62.41C15.0222 61.6609 15.3916 60.792 15.6961 59.8787L10.004 57.9813C9.7884 58.628 9.59779 59.0191 9.46601 59.23L14.554 62.41ZM15.6941 59.8845L20.1041 46.7445L14.4159 44.8355L10.0059 57.9755L15.6941 59.8845ZM20.1089 46.7301C20.7252 44.8624 21.3997 43.2701 22.1203 41.9344L16.8397 39.0856C15.9203 40.7899 15.1148 42.7175 14.4111 44.8499L20.1089 46.7301ZM22.1203 41.9344C22.8492 40.5833 23.591 39.5306 24.3261 38.733L19.9139 34.667C18.769 35.9094 17.7508 37.3967 16.8397 39.0856L22.1203 41.9344ZM24.3456 38.7116C25.0687 37.9116 25.7754 37.3885 26.4514 37.063L23.8486 31.657C22.3646 32.3715 21.0513 33.4084 19.8944 34.6884L24.3456 38.7116ZM26.4916 37.0433C27.1651 36.7065 27.8368 36.55 28.54 36.55V30.55C26.8832 30.55 25.2949 30.9335 23.8084 31.6767L26.4916 37.0433ZM28.54 36.55C29.097 36.55 29.4646 36.6578 29.7196 36.7887L32.4604 31.4513C31.2354 30.8222 29.903 30.55 28.54 30.55V36.55ZM29.8057 36.8312C30.0947 36.9681 30.2354 37.1136 30.329 37.2606L35.391 34.0394C34.6446 32.8664 33.6053 31.9919 32.3743 31.4088L29.8057 36.8312ZM30.3638 37.3141C30.4475 37.4396 30.52 37.6101 30.52 37.93H36.52C36.52 36.5299 36.1525 35.1804 35.3562 33.9859L30.3638 37.3141ZM30.52 37.93C30.52 38.5556 30.3829 39.0896 30.1214 39.5812L35.4186 42.3988C36.1571 41.0104 36.52 39.5044 36.52 37.93H30.52ZM30.1102 39.6023C29.8483 40.1043 29.4522 40.5899 28.8582 41.0519L32.5418 45.7881C33.7478 44.8501 34.7317 43.7157 35.4298 42.3777L30.1102 39.6023ZM28.8657 41.0461C28.2985 41.4844 27.5824 41.8624 26.6743 42.15L28.4857 47.87C29.9776 47.3976 31.3415 46.7156 32.5343 45.7939L28.8657 41.0461ZM26.718 42.1365C25.8321 42.4023 24.8163 42.55 23.65 42.55V48.55C25.3237 48.55 26.928 48.3377 28.442 47.8835L26.718 42.1365ZM23.65 42.55C22.2376 42.55 20.9723 42.4581 19.8462 42.2849L18.9338 48.2151C20.4077 48.4419 21.9824 48.55 23.65 48.55V42.55ZM19.8462 42.2849C18.7371 42.1143 17.6806 41.8429 16.6728 41.4734L14.6072 47.1066C15.9994 47.6171 17.4429 47.9857 18.9338 48.2151L19.8462 42.2849ZM16.7296 41.4949C15.7166 41.1 14.6617 40.5838 13.5648 39.9364L10.5152 45.1036C11.8583 45.8962 13.2034 46.56 14.5504 47.0851L16.7296 41.4949ZM13.5835 39.9475C13.6987 40.0167 13.904 40.1642 14.1 40.4293C14.3071 40.7094 14.4487 41.0479 14.4998 41.4057L8.56015 42.2543C8.75778 43.6377 9.62325 44.5685 10.4965 45.0925L13.5835 39.9475ZM14.5224 41.6163C14.5438 41.9156 14.4941 42.1446 14.4534 42.2748C14.4141 42.4008 14.3767 42.4558 14.3898 42.4343L9.27016 39.3056C8.87909 39.9456 8.45582 40.8984 8.53762 42.0437L14.5224 41.6163ZM14.4447 42.3408C14.4109 42.4009 13.9895 43.1165 12.9532 43.2892L11.9668 37.3708C10.4505 37.6235 9.6091 38.6991 9.21527 39.3992L14.4447 42.3408ZM13.1346 43.2532C12.425 43.4169 11.9084 43.1736 11.7565 43.0825L14.8435 37.9375C14.0916 37.4864 13.015 37.1231 11.7854 37.4068L13.1346 43.2532ZM11.8522 43.1375C12.9589 43.7473 14.1089 44.277 15.3008 44.7268L17.4192 39.1132C16.4911 38.763 15.6011 38.3527 14.7478 37.8825L11.8522 43.1375ZM15.3476 44.744C16.5892 45.1891 17.8941 45.5221 19.2568 45.7492L20.2432 39.8308C19.2059 39.6579 18.2508 39.4109 17.3724 39.096L15.3476 44.744ZM19.2568 45.7492C20.6441 45.9804 22.1214 46.09 23.68 46.09V40.09C22.3986 40.09 21.2559 39.9996 20.2432 39.8308L19.2568 45.7492ZM23.68 46.09C24.955 46.09 26.1915 45.9274 27.3682 45.5716L25.6318 39.8284C25.0885 39.9926 24.445 40.09 23.68 40.09V46.09ZM27.3682 45.5716C28.4788 45.2359 29.5183 44.7624 30.4496 44.1221L27.0504 39.1779C26.7017 39.4176 26.2412 39.6441 25.6318 39.8284L27.3682 45.5716ZM30.5009 44.086C31.4428 43.409 32.2477 42.5668 32.8301 41.539L27.6099 38.581C27.5123 38.7532 27.3372 38.971 26.9991 39.2139L30.5009 44.086ZM32.8144 41.5664C33.4489 40.4737 33.76 39.2713 33.76 38.02H27.76C27.76 38.2487 27.7111 38.4063 27.6256 38.5536L32.8144 41.5664ZM33.76 38.02C33.76 37.162 33.5625 36.2316 33.0135 35.3777L27.9665 38.6223C27.7775 38.3284 27.76 38.078 27.76 38.02H33.76ZM33.0625 35.4565C32.5042 34.526 31.6793 33.8986 30.7673 33.544L28.5927 39.136C28.5121 39.1047 28.3904 39.044 28.2575 38.9357C28.1218 38.8252 28.0055 38.6901 27.9175 38.5435L33.0625 35.4565ZM30.8984 33.5986C30.0959 33.2419 29.2601 33.1 28.45 33.1V39.1C28.5063 39.1 28.5302 39.1049 28.528 39.1045C28.5269 39.1043 28.5198 39.1028 28.5079 39.0991C28.4959 39.0954 28.4802 39.0897 28.4616 39.0814L30.8984 33.5986ZM28.45 33.1C27.0192 33.1 25.6665 33.4809 24.4346 34.1893L27.4254 39.3907C27.7935 39.1791 28.1208 39.1 28.45 39.1V33.1ZM24.4842 34.1614C23.2883 34.8191 22.2427 35.7466 21.3239 36.8392L25.9161 40.7008C26.4773 40.0334 26.9717 39.6409 27.3758 39.4186L24.4842 34.1614ZM21.346 36.8133C20.4183 37.8913 19.5938 39.1695 18.8536 40.6051L24.1864 43.3549C24.7662 42.2305 25.3417 41.3687 25.894 40.7267L21.346 36.8133ZM18.8367 40.6384C18.1235 42.0649 17.4638 43.6842 16.8507 45.4813L22.5293 47.4187C23.0762 45.8158 23.6365 44.4551 24.2033 43.3216L18.8367 40.6384ZM16.846 45.4953L12.556 58.2753L18.244 60.1847L22.534 47.4047L16.846 45.4953ZM12.5582 58.2688C12.1511 59.4722 11.7568 60.2394 11.433 60.6904L16.307 64.1896C17.1032 63.0806 17.7289 61.7078 18.2418 60.1912L12.5582 58.2688ZM11.4245 60.7024C11.1052 61.1516 10.8875 61.2721 10.8286 61.2989L13.3114 66.7611C14.5725 66.1879 15.5548 65.2484 16.3155 64.1776L11.4245 60.7024ZM10.7612 61.3306C10.5348 61.4403 10.266 61.51 9.91 61.51V67.51C11.114 67.51 12.2852 67.2597 13.3788 66.7294L10.7612 61.3306ZM9.91 61.51C9.45578 61.51 9.13092 61.423 8.88071 61.3015L6.25929 66.6985C7.40908 67.257 8.64422 67.51 9.91 67.51V61.51ZM8.97366 61.3486C8.65616 61.1805 8.48995 61.0145 8.3912 60.8763L3.5088 64.3637C4.21005 65.3455 5.12384 66.0995 6.16634 66.6514L8.97366 61.3486ZM8.43243 60.9355C8.40972 60.902 8.3962 60.8775 8.38856 60.8621C8.38102 60.8469 8.37843 60.839 8.37808 60.8379C8.37778 60.837 8.37859 60.8394 8.37931 60.844C8.38003 60.8486 8.38 60.8511 8.38 60.85H2.38C2.38 62.1257 2.78259 63.2951 3.46757 64.3045L8.43243 60.9355ZM8.38 60.85C8.38 60.7113 8.39545 60.638 8.40184 60.6136C8.40729 60.5929 8.40602 60.6072 8.38681 60.6372L3.33319 57.4028C2.64403 58.4796 2.38 59.6797 2.38 60.85H8.38ZM8.41497 60.5923C8.45095 60.5338 8.47591 60.5118 8.53095 60.4833L5.76905 55.1567C4.74409 55.6882 3.90905 56.4662 3.30503 57.4477L8.41497 60.5923ZM8.49164 60.5033C8.6 60.4491 8.75487 60.4 9.01 60.4V54.4C7.90513 54.4 6.82 54.6309 5.80836 55.1367L8.49164 60.5033ZM9.01 60.4C9.56987 60.4 10.1332 60.4922 10.712 60.6895L12.648 55.0105C11.4668 54.6078 10.2501 54.4 9.01 54.4V60.4ZM10.7704 60.7088C11.4928 60.9386 12.2286 61.2384 12.9784 61.6133L15.6616 56.2467C14.6514 55.7416 13.6272 55.3214 12.5896 54.9912L10.7704 60.7088ZM12.9784 61.6133C13.8421 62.0452 14.7061 62.4869 15.5702 62.9387L18.3498 57.6213C17.4539 57.1531 16.5579 56.6948 15.6616 56.2467L12.9784 61.6133ZM15.6424 62.9752C16.6553 63.4703 17.6783 63.8917 18.7113 64.236L20.6087 58.5439C19.8417 58.2883 19.0647 57.9697 18.2776 57.5848L15.6424 62.9752ZM18.7865 64.26C19.9892 64.626 21.2235 64.81 22.48 64.81V58.81C21.8165 58.81 21.1708 58.714 20.5335 58.52L18.7865 64.26ZM22.48 64.81C23.9476 64.81 25.3704 64.5417 26.6852 63.9302L24.1548 58.4898C23.7496 58.6783 23.2124 58.81 22.48 58.81V64.81ZM26.7365 63.9057C27.9481 63.314 29.0241 62.4994 29.9679 61.5032L25.6121 57.3768C25.1159 57.9006 24.6119 58.266 24.1035 58.5143L26.7365 63.9057ZM29.9944 61.4748C30.8804 60.515 31.6824 59.4088 32.4109 58.1794L27.2491 55.1206C26.6976 56.0512 26.1396 56.805 25.5856 57.4052L29.9944 61.4748ZM32.4814 58.0537C32.4378 58.1359 32.3117 58.3477 32.0481 58.5654C31.7619 58.8018 31.3812 58.9874 30.9443 59.0498L30.0957 53.1102C28.5475 53.3313 27.6326 54.3888 27.1786 55.2463L32.4814 58.0537ZM30.9443 59.0498C30.6761 59.0882 30.4695 59.0615 30.355 59.0372C30.2436 59.0136 30.1975 58.9878 30.2257 59.0012L32.7943 53.5788C32.1259 53.2622 31.1775 52.9556 30.0957 53.1102L30.9443 59.0498ZM29.92 58.834C29.9064 58.8255 29.8069 58.7624 29.6802 58.623C29.5479 58.4776 29.3771 58.2381 29.264 57.8987L34.956 56.0013C34.5697 54.8424 33.7311 54.1404 33.1 53.746L29.92 58.834ZM29.3408 58.1038C29.1864 57.7334 29.1423 57.3477 29.1808 57.0012C29.217 56.6761 29.3173 56.4526 29.3729 56.3482L34.6671 59.1718C35.1103 58.3407 35.4253 57.1068 34.8792 55.7962L29.3408 58.1038ZM29.4386 56.2315C28.6357 57.5874 27.8493 58.6036 27.1007 59.3369L31.2993 63.6231C32.5107 62.4364 33.6043 60.9726 34.6014 59.2885L29.4386 56.2315ZM27.1007 59.3369C26.3694 60.0533 25.6166 60.5478 24.8429 60.8679L27.1371 66.4121C28.6834 65.7722 30.0706 64.8267 31.2993 63.6231L27.1007 59.3369ZM24.8674 60.8579C24.1303 61.1554 23.2483 61.33 22.18 61.33V67.33C23.9117 67.33 25.5697 67.0446 27.1126 66.4221L24.8674 60.8579ZM40.0096 64L38.8558 66.7692L38.8805 66.7795L38.9055 66.7894L40.0096 64ZM37.5496 62.35L35.3978 64.4404L35.3978 64.4404L37.5496 62.35ZM35.9896 59.92L33.188 60.9929L33.1919 61.0031L33.1959 61.0132L35.9896 59.92ZM36.1096 53.17L33.3576 51.9757L33.348 51.9977L33.3388 52.0199L36.1096 53.17ZM37.9396 50.41L35.7916 48.3157L35.7909 48.3164L37.9396 50.41ZM40.5496 48.34L39.0216 45.7583L39.0099 45.7652L38.9983 45.7723L40.5496 48.34ZM43.5796 46.78L44.7931 49.5236L47.6268 48.2703L46.2826 45.4786L43.5796 46.78ZM42.8896 45.19L40.0764 46.2319L40.0829 46.2495L40.0896 46.2669L42.8896 45.19ZM42.4396 43.57L39.4863 44.0974L39.488 44.1068L39.4898 44.1163L42.4396 43.57ZM42.8596 38.65L40.0484 37.6027L40.0484 37.6027L42.8596 38.65ZM44.4496 35.98L42.243 33.9476L42.2283 33.9635L42.2139 33.9796L44.4496 35.98ZM46.9096 34.21L48.1334 36.949L48.1465 36.9432L48.1596 36.9372L46.9096 34.21ZM52.4596 33.97L51.3723 36.766L51.4184 36.784L51.4652 36.8004L52.4596 33.97ZM54.3796 35.11L52.3414 37.3113L52.3637 37.332L52.3865 37.3522L54.3796 35.11ZM55.6396 36.85L52.8949 38.0609L52.8949 38.0609L55.6396 36.85ZM55.6096 41.71L52.8447 40.5458L52.8447 40.5458L55.6096 41.71ZM54.2596 43.75L52.1026 41.6649L52.1014 41.6662L54.2596 43.75ZM52.2796 45.31L50.7262 42.7435L50.7109 42.7527L50.6958 42.7621L52.2796 45.31ZM47.2696 47.71L46.0803 44.9558L42.8696 46.3423L44.7285 49.3046L47.2696 47.71ZM52.8796 56.65L50.3385 58.2446L52.6521 61.9315L55.2742 58.4572L52.8796 56.65ZM55.0996 53.08L57.7665 54.4539L57.7665 54.4539L55.0996 53.08ZM56.8996 48.76L59.7457 49.7087L59.7546 49.6818L59.7631 49.6548L56.8996 48.76ZM57.4096 48.1L58.7513 50.7833L58.8377 50.74L58.9212 50.6913L57.4096 48.1ZM59.3896 48.13L57.3965 50.3722L57.4701 50.4376L57.5478 50.4981L59.3896 48.13ZM59.5096 48.79L56.6636 47.8413L56.6607 47.8498L56.658 47.8583L59.5096 48.79ZM57.1696 54.34L54.5251 52.9233L54.519 52.9349L57.1696 54.34ZM54.2296 58.75L51.9367 56.8154L50.529 58.4838L51.6834 60.3365L54.2296 58.75ZM56.6596 62.65L54.1134 64.2365L54.1246 64.2545L54.1361 64.2723L56.6596 62.65ZM56.8096 63.43L53.9636 62.4813L53.9372 62.5603L53.9153 62.6406L56.8096 63.43ZM56.0896 64.18L54.4255 61.6839L54.3668 61.723L54.31 61.7648L56.0896 64.18ZM55.0996 64.57L55.3134 61.5776L55.2066 61.57H55.0996V64.57ZM54.4696 64.15L57.0743 62.6616L57.0415 62.604L57.0061 62.548L54.4696 64.15ZM52.3096 60.73L54.8461 59.128L52.9186 56.0762L50.2707 58.5293L52.3096 60.73ZM47.9596 63.61L49.1109 66.3803L49.1262 66.3739L49.1414 66.3674L47.9596 63.61ZM47.3296 61.21L48.5678 63.9426L48.5678 63.9426L47.3296 61.21ZM51.0196 58.69L53.0652 60.8844L54.8831 59.1897L53.5563 57.0883L51.0196 58.69ZM44.7496 48.76L47.2863 47.1583L45.8896 44.9464L43.5082 46.0289L44.7496 48.76ZM42.2596 50.11L43.8319 52.665L43.8554 52.6505L43.8786 52.6356L42.2596 50.11ZM40.1896 51.76L42.3109 53.8813L42.3283 53.8639L42.3454 53.8463L40.1896 51.76ZM38.7496 53.89L36.0027 52.684L35.9956 52.7003L35.9886 52.7166L38.7496 53.89ZM38.8696 59.5L36.1995 60.8676L36.1995 60.8676L38.8696 59.5ZM40.6696 61.42L39.1457 64.0041L39.1844 64.027L39.2239 64.0486L40.6696 61.42ZM46.0696 45.76L43.361 47.0498L44.5549 49.5568L47.1465 48.56L46.0696 45.76ZM48.2896 44.83L47.0712 42.0886L47.0567 42.095L47.0423 42.1016L48.2896 44.83ZM51.8896 42.64L53.961 44.8101L53.9633 44.8079L51.8896 42.64ZM52.9396 41.2L50.2366 39.8986L50.226 39.9206L50.2157 39.9428L52.9396 41.2ZM51.7096 36.43L50.2873 39.0714L50.3273 39.093L50.368 39.1133L51.7096 36.43ZM47.2096 36.76L45.4984 34.2959L45.4821 34.3072L45.4659 34.3188L47.2096 36.76ZM45.5896 38.8L42.8456 37.5875L42.8337 37.6144L42.8223 37.6416L45.5896 38.8ZM45.1696 43.12L48.1252 42.606L48.1252 42.606L45.1696 43.12ZM45.5296 44.47L48.349 43.4448L48.349 43.4448L45.5296 44.47ZM43.2496 61.57C42.3672 61.57 41.6701 61.4308 41.1138 61.2106L38.9055 66.7894C40.2691 67.3292 41.732 67.57 43.2496 67.57V61.57ZM41.1635 61.2308C40.5537 60.9767 40.0799 60.6493 39.7014 60.2596L35.3978 64.4404C36.3793 65.4507 37.5455 66.2233 38.8558 66.7692L41.1635 61.2308ZM39.7014 60.2596C39.3031 59.8496 38.9997 59.3797 38.7833 58.8268L33.1959 61.0132C33.6995 62.3003 34.4361 63.4504 35.3978 64.4404L39.7014 60.2596ZM38.7912 58.8471C38.5692 58.2675 38.4496 57.6329 38.4496 56.92H32.4496C32.4496 58.3271 32.69 59.6925 33.188 60.9929L38.7912 58.8471ZM38.4496 56.92C38.4496 55.7777 38.6249 54.9356 38.8804 54.3201L33.3388 52.0199C32.7143 53.5244 32.4496 55.1823 32.4496 56.92H38.4496ZM38.8616 54.3643C39.1857 53.6176 39.5975 53.0073 40.0883 52.5036L35.7909 48.3164C34.7617 49.3727 33.9535 50.6024 33.3576 51.9757L38.8616 54.3643ZM40.0876 52.5043C40.689 51.8875 41.3583 51.3564 42.101 50.9077L38.9983 45.7723C37.8209 46.4836 36.7503 47.3325 35.7916 48.3157L40.0876 52.5043ZM42.0776 50.9217C42.9562 50.4017 43.8612 49.9358 44.7931 49.5236L42.3661 44.0364C41.218 44.5442 40.103 45.1183 39.0216 45.7583L42.0776 50.9217ZM46.2826 45.4786C46.0554 45.0066 45.8583 44.5515 45.6896 44.1131L40.0896 46.2669C40.321 46.8685 40.5839 47.4734 40.8766 48.0814L46.2826 45.4786ZM45.7029 44.1481C45.5596 43.7613 45.4567 43.3869 45.3895 43.0237L39.4898 44.1163C39.6225 44.833 39.8196 45.5387 40.0764 46.2319L45.7029 44.1481ZM45.3929 43.0426C45.3223 42.6475 45.2896 42.274 45.2896 41.92H39.2896C39.2896 42.646 39.3569 43.3725 39.4863 44.0974L45.3929 43.0426ZM45.2896 41.92C45.2896 41.0939 45.4237 40.3608 45.6709 39.6973L40.0484 37.6027C39.5355 38.9792 39.2896 40.4261 39.2896 41.92H45.2896ZM45.6709 39.6973C45.929 39.0043 46.2714 38.443 46.6853 37.9804L42.2139 33.9796C41.2678 35.037 40.5502 36.2557 40.0484 37.6027L45.6709 39.6973ZM46.6562 38.0124C47.0811 37.5512 47.567 37.2021 48.1334 36.949L45.6858 31.471C44.3722 32.0579 43.2181 32.8888 42.243 33.9476L46.6562 38.0124ZM48.1596 36.9372C48.6902 36.694 49.3181 36.55 50.0896 36.55V30.55C48.5411 30.55 47.0491 30.846 45.6596 31.4828L48.1596 36.9372ZM50.0896 36.55C50.6197 36.55 51.036 36.6353 51.3723 36.766L53.547 31.174C52.4432 30.7447 51.2796 30.55 50.0896 30.55V36.55ZM51.4652 36.8004C51.8437 36.9334 52.1221 37.1082 52.3414 37.3113L56.4178 32.9087C55.5571 32.1118 54.5555 31.5266 53.4541 31.1396L51.4652 36.8004ZM52.3865 37.3522C52.5955 37.538 52.7634 37.763 52.8949 38.0609L58.3844 35.6391C57.9158 34.577 57.2437 33.642 56.3727 32.8678L52.3865 37.3522ZM52.8949 38.0609C53.0099 38.3216 53.0896 38.6536 53.0896 39.1H59.0896C59.0896 37.9064 58.8693 36.7384 58.3844 35.6391L52.8949 38.0609ZM53.0896 39.1C53.0896 39.7541 52.9832 40.2169 52.8447 40.5458L58.3745 42.8742C58.876 41.6831 59.0896 40.4058 59.0896 39.1H53.0896ZM52.8447 40.5458C52.6704 40.9597 52.428 41.3284 52.1026 41.6649L56.4166 45.8351C57.2513 44.9716 57.9088 43.9803 58.3745 42.8742L52.8447 40.5458ZM52.1014 41.6662C51.7386 42.042 51.2869 42.4041 50.7262 42.7435L53.833 47.8765C54.7923 47.2959 55.6607 46.618 56.4178 45.8338L52.1014 41.6662ZM50.6958 42.7621C50.0838 43.1426 49.4089 43.4982 48.6671 43.8259L51.0921 49.3141C52.0703 48.8818 52.9955 48.3974 53.8634 47.8579L50.6958 42.7621ZM48.6671 43.8259C47.815 44.2025 46.9527 44.5791 46.0803 44.9558L48.4589 50.4642C49.3465 50.0809 50.2242 49.6975 51.0921 49.3141L48.6671 43.8259ZM44.7285 49.3046L50.3385 58.2446L55.4207 55.0554L49.8107 46.1154L44.7285 49.3046ZM55.2742 58.4572C56.1884 57.2459 57.0173 55.9083 57.7665 54.4539L52.4327 51.7061C51.8219 52.8917 51.1709 53.9341 50.485 54.8428L55.2742 58.4572ZM57.7665 54.4539C58.5241 52.9833 59.1821 51.3995 59.7457 49.7087L54.0536 47.8113C53.5772 49.2405 53.0351 50.5367 52.4327 51.7061L57.7665 54.4539ZM59.7631 49.6548C59.7281 49.7666 59.6483 49.9664 59.476 50.1893C59.2954 50.423 59.0495 50.6341 58.7513 50.7833L56.068 45.4167C54.9257 45.9878 54.3149 46.9733 54.0362 47.8652L59.7631 49.6548ZM58.9212 50.6913C58.6997 50.8205 58.5225 50.8659 58.4496 50.8809C58.376 50.896 58.3617 50.89 58.4296 50.89V44.89C57.7395 44.89 56.7904 44.9881 55.898 45.5087L58.9212 50.6913ZM58.4296 50.89C58.5028 50.89 58.4377 50.8981 58.287 50.8604C58.1423 50.8243 57.7769 50.7104 57.3965 50.3722L61.3827 45.8878C60.3348 44.9563 59.0404 44.89 58.4296 44.89V50.89ZM57.5478 50.4981C57.0679 50.1248 56.7179 49.5686 56.603 48.9366C56.5031 48.3874 56.6164 47.9829 56.6636 47.8413L62.3557 49.7387C62.5029 49.2971 62.6461 48.6326 62.5062 47.8633C62.3513 47.0114 61.8913 46.2752 61.2314 45.7619L57.5478 50.4981ZM56.658 47.8583C56.0465 49.7297 55.3331 51.4151 54.5252 52.9233L59.8141 55.7567C60.8061 53.9049 61.6527 51.8903 62.3613 49.7217L56.658 47.8583ZM54.519 52.9349C53.7271 54.4286 52.8635 55.717 51.9367 56.8154L56.5225 60.6846C57.7557 59.223 58.8521 57.5714 59.8202 55.7451L54.519 52.9349ZM51.6834 60.3365L54.1134 64.2365L59.2058 61.0635L56.7758 57.1635L51.6834 60.3365ZM54.1361 64.2723C54.0704 64.1702 53.9493 63.9501 53.8861 63.6215C53.8186 63.2707 53.8332 62.8725 53.9636 62.4813L59.6557 64.3787C60.108 63.0216 59.6874 61.8121 59.1831 61.0277L54.1361 64.2723ZM53.9153 62.6406C53.9953 62.3474 54.1117 62.1282 54.2021 61.9865C54.2925 61.8449 54.3754 61.7518 54.4204 61.7049C54.5028 61.6191 54.5284 61.6152 54.4255 61.6839L57.7537 66.6761C58.0708 66.4648 58.4264 66.1959 58.7488 65.8601C59.0506 65.5457 59.4909 65.0004 59.7039 64.2194L53.9153 62.6406ZM54.31 61.7648C54.265 61.798 54.3159 61.7521 54.4575 61.6963C54.6031 61.639 54.9042 61.5484 55.3134 61.5776L54.8859 67.5624C56.2242 67.658 57.2753 67.0328 57.8692 66.5952L54.31 61.7648ZM55.0996 61.57C55.5429 61.57 56.0079 61.7 56.4112 61.9688C56.7861 62.2188 56.9855 62.5061 57.0743 62.6616L51.8649 65.6384C52.4088 66.5903 53.4911 67.57 55.0996 67.57V61.57ZM57.0061 62.548L54.8461 59.128L49.7731 62.332L51.9331 65.752L57.0061 62.548ZM50.2707 58.5293C49.1358 59.5808 47.9706 60.3414 46.7779 60.8526L49.1414 66.3674C51.0286 65.5586 52.7634 64.3992 54.3485 62.9307L50.2707 58.5293ZM46.8083 60.8397C45.6175 61.3346 44.4378 61.57 43.2496 61.57V67.57C45.2614 67.57 47.2217 67.1654 49.1109 66.3803L46.8083 60.8397ZM43.5496 65.08C45.2702 65.08 46.9507 64.6753 48.5678 63.9426L46.0914 58.4774C45.1485 58.9047 44.3091 59.08 43.5496 59.08V65.08ZM48.5678 63.9426C50.1846 63.2099 51.6817 62.1741 53.0652 60.8844L48.974 56.4956C47.9975 57.4059 47.0346 58.0501 46.0914 58.4774L48.5678 63.9426ZM53.5563 57.0883L47.2863 47.1583L42.213 50.3617L48.483 60.2917L53.5563 57.0883ZM43.5082 46.0289C42.5032 46.4857 41.5465 47.0037 40.6406 47.5844L43.8786 52.6356C44.5327 52.2163 45.236 51.8343 45.991 51.4911L43.5082 46.0289ZM40.6873 47.555C39.7071 48.1582 38.8183 48.863 38.0338 49.6737L42.3454 53.8463C42.7609 53.417 43.2521 53.0218 43.8319 52.665L40.6873 47.555ZM38.0683 49.6387C37.1903 50.5167 36.5041 51.5418 36.0027 52.684L41.4965 55.096C41.7151 54.5982 41.9889 54.2033 42.3109 53.8813L38.0683 49.6387ZM35.9886 52.7166C35.4631 53.953 35.2396 55.2844 35.2396 56.65H41.2396C41.2396 55.9356 41.3561 55.427 41.5106 55.0634L35.9886 52.7166ZM35.2396 56.65C35.2396 58.1238 35.5282 59.5571 36.1995 60.8676L41.5397 58.1324C41.371 57.8029 41.2396 57.3362 41.2396 56.65H35.2396ZM36.1995 60.8676C36.8738 62.1842 37.8671 63.2501 39.1457 64.0041L42.1936 58.8359C41.9121 58.6699 41.7054 58.4558 41.5397 58.1324L36.1995 60.8676ZM39.2239 64.0486C40.5566 64.7816 42.0376 65.08 43.5496 65.08V59.08C42.8217 59.08 42.3826 58.9384 42.1154 58.7914L39.2239 64.0486ZM47.1465 48.56C47.9792 48.2398 48.7763 47.9061 49.5369 47.5584L47.0423 42.1016C46.4029 42.3939 45.72 42.6802 44.9927 42.96L47.1465 48.56ZM49.508 47.5714C50.3171 47.2119 51.0841 46.8235 51.806 46.4044L48.7932 41.2156C48.2751 41.5165 47.7022 41.8081 47.0712 42.0886L49.508 47.5714ZM51.806 46.4044C52.5952 45.9462 53.3229 45.4192 53.961 44.8101L49.8182 40.4699C49.5763 40.7008 49.2441 40.9538 48.7932 41.2156L51.806 46.4044ZM53.9633 44.8079C54.665 44.1368 55.2491 43.3549 55.6635 42.4572L50.2157 39.9428C50.1501 40.0851 50.0343 40.2632 49.8159 40.4721L53.9633 44.8079ZM55.6426 42.5014C56.1229 41.5039 56.3296 40.4397 56.3296 39.37H50.3296C50.3296 39.6603 50.2763 39.8161 50.2366 39.8986L55.6426 42.5014ZM56.3296 39.37C56.3296 38.2696 56.1078 37.1412 55.5271 36.1042L50.2921 39.0358C50.2714 38.9988 50.3296 39.0704 50.3296 39.37H56.3296ZM55.5271 36.1042C54.9489 35.0716 54.1006 34.2714 53.0513 33.7467L50.368 39.1133C50.3738 39.1162 50.3716 39.1156 50.3639 39.1102C50.3561 39.1048 50.3453 39.0963 50.3334 39.085C50.3214 39.0736 50.3112 39.0621 50.3033 39.0518C50.2954 39.0417 50.292 39.0356 50.2921 39.0358L55.5271 36.1042ZM53.1319 33.7886C52.0889 33.2269 50.9584 33.01 49.8496 33.01V39.01C50.0161 39.01 50.1271 39.0263 50.1938 39.0413C50.2584 39.0559 50.2846 39.0699 50.2873 39.0714L53.1319 33.7886ZM49.8496 33.01C48.3146 33.01 46.8088 33.3859 45.4984 34.2959L48.9208 39.2241C49.0504 39.1341 49.3046 39.01 49.8496 39.01V33.01ZM45.4659 34.3188C44.2882 35.16 43.422 36.2829 42.8456 37.5875L48.3337 40.0125C48.5172 39.5971 48.731 39.36 48.9533 39.2012L45.4659 34.3188ZM42.8223 37.6416C42.2863 38.9219 42.0496 40.2946 42.0496 41.71H48.0496C48.0496 40.9654 48.1729 40.3981 48.3569 39.9584L42.8223 37.6416ZM42.0496 41.71C42.0496 42.3575 42.1036 42.9996 42.214 43.634L48.1252 42.606C48.0756 42.3204 48.0496 42.0225 48.0496 41.71H42.0496ZM42.214 43.634C42.3243 44.2686 42.49 44.8896 42.7102 45.4952L48.349 43.4448C48.2492 43.1704 48.1749 42.8914 48.1252 42.606L42.214 43.634ZM42.7102 45.4952C42.9027 46.0246 43.1196 46.5429 43.361 47.0498L48.7782 44.4702C48.6196 44.1371 48.4765 43.7954 48.349 43.4448L42.7102 45.4952ZM77.7346 64.3L78.4622 61.3896L78.4327 61.3822L78.4031 61.3754L77.7346 64.3ZM75.7246 63.61L74.383 66.2933L74.4169 66.3103L74.4513 66.3264L75.7246 63.61ZM73.9546 62.5L72.0696 64.8338L72.091 64.8511L72.1128 64.8681L73.9546 62.5ZM72.6346 61.18L70.1587 62.8741L70.2129 62.9533L70.2721 63.0289L72.6346 61.18ZM72.3046 60.22L75.2697 60.6762L75.2722 60.6602L75.2745 60.6443L72.3046 60.22ZM72.8446 59.38L70.9911 57.021L70.9288 57.07L70.8691 57.1223L72.8446 59.38ZM73.5946 59.08L73.323 62.0677L73.3342 62.0687L73.3455 62.0696L73.5946 59.08ZM74.4046 59.56L72.2833 61.6813L72.3241 61.7221L72.3664 61.7613L74.4046 59.56ZM76.0546 60.85L77.6769 58.3265L77.6769 58.3265L76.0546 60.85ZM77.8546 61.69L76.9598 64.5534L77.0009 64.5663L77.0424 64.578L77.8546 61.69ZM82.6846 61.51L83.7154 64.3274L83.7454 64.3164L83.7752 64.3047L82.6846 61.51ZM84.8146 60.19L86.8616 62.3832L86.8808 62.3652L86.8997 62.347L84.8146 60.19ZM86.1946 58.09L83.3999 56.9994L83.3999 56.9994L86.1946 58.09ZM86.3446 53.11L83.4434 53.8735L83.4555 53.9194L83.469 53.9649L86.3446 53.11ZM85.5046 50.89L82.8213 52.2316L82.8213 52.2316L85.5046 50.89ZM84.2146 48.73L81.6977 50.3626L81.7235 50.4023L81.7505 50.4412L84.2146 48.73ZM82.6246 46.51L80.2634 48.3606L80.2634 48.3606L82.6246 46.51ZM80.7946 44.23L83.1138 42.327L80.5054 39.1481L78.2745 42.6024L80.7946 44.23ZM75.8446 51.73L73.363 50.0444L73.3575 50.0524L73.3521 50.0605L75.8446 51.73ZM71.9746 57.13L69.6134 55.2794L69.61 55.2837L71.9746 57.13ZM68.7946 60.76L70.8935 62.9035L70.8939 62.9031L68.7946 60.76ZM65.9446 62.95L64.4924 60.3249L64.4804 60.3315L64.4684 60.3383L65.9446 62.95ZM63.1246 64.03L63.7365 66.9669L63.1246 64.03ZM59.2546 62.95L62.1346 63.79L62.14 63.7715L62.1452 63.7529L59.2546 62.95ZM59.7646 62.17L61.4287 64.6662L61.4796 64.6322L61.5291 64.5962L59.7646 62.17ZM62.6446 61.69L61.895 58.7852L61.895 58.7852L62.6446 61.69ZM64.5346 60.91L66.0054 63.5247L66.036 63.5075L66.0662 63.4896L64.5346 60.91ZM66.5446 59.38L68.5689 61.5941L68.5859 61.5786L68.6026 61.5628L66.5446 59.38ZM68.8546 56.89L66.5575 54.9604L66.5575 54.9604L68.8546 56.89ZM71.6146 53.32L69.1899 51.5534L69.1854 51.5597L71.6146 53.32ZM75.0346 48.43L72.5509 46.7475L72.5509 46.7475L75.0346 48.43ZM79.2646 42.04L81.7799 43.675L82.8221 42.0716L81.8086 40.45L79.2646 42.04ZM78.4246 40.63L75.7413 41.9716L75.7754 42.0398L75.8129 42.1062L78.4246 40.63ZM77.7646 39.22L74.9556 40.2734L74.9827 40.3455L75.0134 40.4162L77.7646 39.22ZM77.3446 37.78L74.4029 38.3683L74.4052 38.3801L74.4077 38.3919L77.3446 37.78ZM77.7646 33.76L80.4333 35.1304L80.4333 35.1304L77.7646 33.76ZM79.3246 32.02L77.714 29.489L77.714 29.489L79.3246 32.02ZM84.2146 32.38L82.1252 34.5327L82.1417 34.5488L82.1585 34.5646L84.2146 32.38ZM84.9346 36.79L87.7981 37.6848L87.8019 37.6724L87.8057 37.66L84.9346 36.79ZM83.9746 38.98L81.3311 37.5615L81.3176 37.5868L81.3045 37.6124L83.9746 38.98ZM82.2646 41.92L79.7281 40.318L78.6368 42.046L79.8454 43.6941L82.2646 41.92ZM83.6746 43.78L81.3105 45.6269L81.3282 45.6495L81.3463 45.6718L83.6746 43.78ZM85.2646 45.79L87.64 43.9576L87.64 43.9576L85.2646 45.79ZM86.7946 47.98L84.2581 49.582L84.2829 49.6212L84.3088 49.6596L86.7946 47.98ZM88.1146 50.29L85.4048 51.5772L85.4111 51.5906L85.4176 51.6039L88.1146 50.29ZM89.0146 52.72L86.1125 53.4801L86.1234 53.5216L86.1354 53.5627L89.0146 52.72ZM88.6846 59.05L85.8959 57.9441L85.8908 57.9569L85.8858 57.9698L88.6846 59.05ZM86.7646 62.02L88.8602 64.1667L88.8732 64.1541L88.8859 64.1413L86.7646 62.02ZM83.7646 63.91L82.7006 61.105L82.6925 61.1081L82.6844 61.1112L83.7646 63.91ZM80.7946 39.64L78.1983 41.1431L80.7485 45.5479L83.3671 41.1835L80.7946 39.64ZM81.9346 37.63L84.5979 39.0109L84.608 38.9914L84.6179 38.9716L81.9346 37.63ZM82.5346 36.16L85.4192 36.9842L85.4192 36.9842L82.5346 36.16ZM82.3546 34.06L80.1431 36.0872L80.1872 36.1352L80.2333 36.1813L82.3546 34.06ZM80.5546 34L82.2622 36.4666L82.3241 36.4238L82.3837 36.3779L80.5546 34ZM79.9546 34.84L82.7506 35.9273L82.7604 35.9023L82.7696 35.8771L79.9546 34.84ZM79.8646 37.36L76.9229 37.9483L76.9405 38.0365L76.9634 38.1235L79.8646 37.36ZM80.2246 38.5L77.4096 39.5371L77.4332 39.6012L77.4597 39.6642L80.2246 38.5ZM79.9846 61.57C79.4374 61.57 78.9324 61.5071 78.4622 61.3896L77.007 67.2104C77.9768 67.4529 78.9718 67.57 79.9846 67.57V61.57ZM78.4031 61.3754C77.9082 61.2623 77.4412 61.1014 76.9979 60.8936L74.4513 66.3264C75.288 66.7186 76.161 67.0177 77.0661 67.2246L78.4031 61.3754ZM77.0663 60.9267C76.5949 60.691 76.1735 60.4252 75.7964 60.1319L72.1128 64.8681C72.8157 65.4148 73.5744 65.889 74.383 66.2933L77.0663 60.9267ZM75.8396 60.1662C75.4718 59.8691 75.1984 59.5883 74.9971 59.3311L70.2721 63.0289C70.7908 63.6917 71.3974 64.2909 72.0696 64.8338L75.8396 60.1662ZM75.1105 59.4859C75.0819 59.4441 75.1366 59.5122 75.1942 59.6798C75.2532 59.8516 75.3418 60.2078 75.2697 60.6762L69.3395 59.7638C69.1231 61.1704 69.7643 62.2976 70.1587 62.8741L75.1105 59.4859ZM75.2745 60.6443C75.2237 60.9999 75.0955 61.2631 74.9931 61.4223C74.943 61.5003 74.8981 61.5551 74.8687 61.588C74.8392 61.621 74.8209 61.6371 74.8201 61.6377L70.8691 57.1223C70.2717 57.645 69.5166 58.5229 69.3348 59.7957L75.2745 60.6443ZM74.6981 61.739C74.681 61.7524 74.5664 61.8414 74.3563 61.9254C74.1366 62.0133 73.7766 62.1089 73.323 62.0677L73.8662 56.0923C72.5326 55.9711 71.5228 56.6033 70.9911 57.021L74.6981 61.739ZM73.3455 62.0696C72.8977 62.0323 72.5893 61.8798 72.4477 61.7959C72.3066 61.7122 72.2529 61.651 72.2833 61.6813L76.5259 57.4387C76.0686 56.9814 75.1589 56.2 73.8437 56.0904L73.3455 62.0696ZM72.3664 61.7613C73.022 62.3683 73.71 62.9092 74.4323 63.3735L77.6769 58.3265C77.2792 58.0708 76.8672 57.7517 76.4428 57.3587L72.3664 61.7613ZM74.4323 63.3735C75.2201 63.88 76.065 64.2738 76.9598 64.5534L78.7494 58.8266C78.3642 58.7062 78.0091 58.54 77.6769 58.3265L74.4323 63.3735ZM77.0424 64.578C77.9878 64.8438 78.9762 64.96 79.9846 64.96V58.96C79.433 58.96 79.0015 58.8962 78.6668 58.802L77.0424 64.578ZM79.9846 64.96C81.2735 64.96 82.5273 64.762 83.7154 64.3274L81.6539 58.6926C81.2019 58.858 80.6557 58.96 79.9846 58.96V64.96ZM83.7752 64.3047C84.9233 63.8567 85.9641 63.2208 86.8616 62.3832L82.7677 57.9968C82.4651 58.2792 82.0859 58.5233 81.594 58.7153L83.7752 64.3047ZM86.8997 62.347C87.8272 61.4504 88.5211 60.3805 88.9893 59.1806L83.3999 56.9994C83.2281 57.4395 83.0021 57.7696 82.7295 58.033L86.8997 62.347ZM88.9893 59.1806C89.4622 57.969 89.6746 56.6828 89.6746 55.36H83.6746C83.6746 56.0372 83.5671 56.571 83.3999 56.9994L88.9893 59.1806ZM89.6746 55.36C89.6746 54.3059 89.5214 53.2681 89.2202 52.2551L83.469 53.9649C83.6078 54.4319 83.6746 54.8941 83.6746 55.36H89.6746ZM89.2458 52.3465C88.992 51.382 88.638 50.4486 88.1879 49.5484L82.8213 52.2316C83.0912 52.7714 83.2972 53.318 83.4434 53.8735L89.2458 52.3465ZM88.1879 49.5484C87.7584 48.6894 87.2534 47.8463 86.6787 47.0188L81.7505 50.4412C82.1758 51.0537 82.5308 51.6506 82.8213 52.2316L88.1879 49.5484ZM86.7315 47.0974C86.1998 46.2777 85.6173 45.4651 84.9858 44.6594L80.2634 48.3606C80.7919 49.0349 81.2694 49.7023 81.6977 50.3626L86.7315 47.0974ZM84.9858 44.6594C84.391 43.9005 83.767 43.1231 83.1138 42.327L78.4754 46.1329C79.1022 46.8969 79.6982 47.6395 80.2634 48.3606L84.9858 44.6594ZM78.2745 42.6024C76.4232 45.469 74.7864 47.9487 73.363 50.0444L78.3263 53.4156C79.7828 51.2713 81.446 48.751 83.3147 45.8576L78.2745 42.6024ZM73.3521 50.0605C71.9601 52.1387 70.7145 53.8745 69.6134 55.2794L74.3358 58.9806C75.5547 57.4255 76.8892 55.5613 78.3371 53.3995L73.3521 50.0605ZM69.61 55.2837C68.5255 56.6726 67.5541 57.7756 66.6953 58.6169L70.8939 62.9031C71.9951 61.8244 73.1437 60.5074 74.3392 58.9763L69.61 55.2837ZM66.6957 58.6165C65.8827 59.4126 65.1458 59.9635 64.4924 60.3249L67.3968 65.5751C68.6234 64.8965 69.7866 63.9874 70.8935 62.9035L66.6957 58.6165ZM64.4684 60.3383C63.7971 60.7178 63.1469 60.9609 62.5127 61.0931L63.7365 66.9669C65.0223 66.6991 66.2521 66.2222 67.4208 65.5617L64.4684 60.3383ZM62.5127 61.0931C61.7866 61.2443 60.9352 61.33 59.9446 61.33V67.33C61.274 67.33 62.5426 67.2157 63.7365 66.9669L62.5127 61.0931ZM59.9446 61.33C59.9835 61.33 60.2754 61.33 60.6653 61.5016C61.1214 61.7022 61.6303 62.1087 61.9257 62.7586L56.4635 65.2414C57.3214 67.1287 59.2063 67.33 59.9446 67.33V61.33ZM61.9257 62.7586C62.147 63.2455 62.1358 63.6369 62.1297 63.7436C62.1226 63.8685 62.1036 63.8962 62.1346 63.79L56.3746 62.11C56.2132 62.6634 55.8794 63.9564 56.4635 65.2414L61.9257 62.7586ZM62.1452 63.7529C62.1107 63.8771 61.9461 64.3212 61.4287 64.6662L58.1005 59.6738C57.1031 60.3388 56.5985 61.3029 56.3641 62.1471L62.1452 63.7529ZM61.5291 64.5962C61.0686 64.9311 60.6738 64.93 60.6646 64.93V58.93C59.8955 58.93 58.9006 59.0889 58.0001 59.7438L61.5291 64.5962ZM60.6646 64.93C61.5942 64.93 62.5078 64.8236 63.3942 64.5948L61.895 58.7852C61.5414 58.8764 61.135 58.93 60.6646 58.93V64.93ZM63.3942 64.5948C64.2999 64.3611 65.1711 63.994 66.0054 63.5247L63.0638 58.2953C62.6181 58.546 62.2293 58.6989 61.895 58.7852L63.3942 64.5948ZM66.0662 63.4896C66.9228 62.981 67.7566 62.3368 68.5689 61.5941L64.5203 57.1659C63.9326 57.7032 63.4264 58.079 63.003 58.3304L66.0662 63.4896ZM68.6026 61.5628C69.4109 60.8007 70.2614 59.8794 71.1517 58.8196L66.5575 54.9604C65.7678 55.9006 65.0783 56.6393 64.4866 57.1972L68.6026 61.5628ZM71.1517 58.8196C72.0492 57.7512 73.0137 56.5019 74.0439 55.0803L69.1854 51.5597C68.2155 52.8981 67.3401 54.0288 66.5575 54.9604L71.1517 58.8196ZM74.0393 55.0866C75.0844 53.6522 76.2445 51.9931 77.5184 50.1125L72.5509 46.7475C71.3048 48.5869 70.1849 50.1878 69.1899 51.5534L74.0393 55.0866ZM77.5184 50.1125C78.7915 48.2332 80.2122 46.0868 81.7799 43.675L76.7493 40.405C75.197 42.7932 73.7978 44.9068 72.5509 46.7475L77.5184 50.1125ZM81.8086 40.45C81.5304 40.0048 81.2731 39.5728 81.0363 39.1538L75.8129 42.1062C76.0961 42.6072 76.3989 43.1152 76.7206 43.63L81.8086 40.45ZM81.1079 39.2884C80.8902 38.8529 80.6931 38.4315 80.5158 38.0238L75.0134 40.4162C75.2362 40.9285 75.479 41.4471 75.7413 41.9716L81.1079 39.2884ZM80.5736 38.1666C80.445 37.8238 80.3489 37.4913 80.2816 37.1681L74.4077 38.3919C74.5403 39.0287 74.7242 39.6562 74.9556 40.2734L80.5736 38.1666ZM80.2864 37.1917C80.2243 36.8815 80.1946 36.5786 80.1946 36.28H74.1946C74.1946 36.9814 74.2649 37.6785 74.4029 38.3683L80.2864 37.1917ZM80.1946 36.28C80.1946 35.7541 80.2979 35.3941 80.4333 35.1304L75.0959 32.3896C74.4713 33.6059 74.1946 34.9259 74.1946 36.28H80.1946ZM80.4333 35.1304C80.5859 34.8332 80.7534 34.6667 80.9352 34.551L77.714 29.489C76.5758 30.2133 75.7033 31.2068 75.0959 32.3896L80.4333 35.1304ZM80.9352 34.551C81.0666 34.4674 81.2564 34.39 81.6046 34.39V28.39C80.2328 28.39 78.9026 28.7326 77.714 29.489L80.9352 34.551ZM81.6046 34.39C81.9851 34.39 82.0733 34.4824 82.1252 34.5327L86.304 30.2273C84.9959 28.9576 83.3441 28.39 81.6046 28.39V34.39ZM82.1585 34.5646C82.1769 34.5819 82.1837 34.5917 82.1853 34.594C82.1868 34.5962 82.1897 34.6006 82.1942 34.6117C82.2019 34.631 82.2346 34.7222 82.2346 34.93H88.2346C88.2346 33.1657 87.6371 31.4814 86.2707 30.1954L82.1585 34.5646ZM82.2346 34.93C82.2346 35.1657 82.1937 35.4904 82.0635 35.92L87.8057 37.66C88.0755 36.7696 88.2346 35.8543 88.2346 34.93H82.2346ZM82.0712 35.8952C81.9448 36.2997 81.7131 36.8496 81.3311 37.5615L86.6181 40.3985C87.1161 39.4704 87.5245 38.5603 87.7981 37.6848L82.0712 35.8952ZM81.3045 37.6124C80.9395 38.3249 80.4199 39.2227 79.7281 40.318L84.8011 43.522C85.5493 42.3373 86.1697 41.275 86.6447 40.3476L81.3045 37.6124ZM79.8454 43.6941C80.3049 44.3208 80.7935 44.9651 81.3105 45.6269L86.0387 41.9331C85.5558 41.3149 85.1043 40.7192 84.6838 40.1459L79.8454 43.6941ZM81.3463 45.6718C81.8493 46.2908 82.3636 46.941 82.8893 47.6224L87.64 43.9576C87.0856 43.239 86.54 42.5492 86.003 41.8882L81.3463 45.6718ZM82.8893 47.6224C83.371 48.2469 83.8274 48.8999 84.2581 49.582L89.3311 46.378C88.8018 45.5401 88.2382 44.7331 87.64 43.9576L82.8893 47.6224ZM84.3088 49.6596C84.7251 50.2756 85.09 50.9146 85.4048 51.5772L90.8244 49.0028C90.3792 48.0654 89.8641 47.1644 89.2804 46.3004L84.3088 49.6596ZM85.4176 51.6039C85.7111 52.2064 85.9425 52.8308 86.1125 53.4801L91.9167 51.9599C91.6468 50.9292 91.2781 49.9336 90.8116 48.9761L85.4176 51.6039ZM86.1354 53.5627C86.2967 54.1137 86.3746 54.6601 86.3746 55.21H92.3746C92.3746 54.0799 92.2125 52.9663 91.8938 51.8773L86.1354 53.5627ZM86.3746 55.21C86.3746 56.2773 86.2003 57.1765 85.8959 57.9441L91.4733 60.1559C92.0889 58.6035 92.3746 56.9427 92.3746 55.21H86.3746ZM85.8858 57.9698C85.5921 58.7308 85.1787 59.3632 84.6433 59.8987L88.8859 64.1413C90.0305 62.9968 90.8971 61.6492 91.4834 60.1302L85.8858 57.9698ZM84.669 59.8733C84.1406 60.3891 83.4975 60.8028 82.7006 61.105L84.8286 66.715C86.3517 66.1372 87.7086 65.2909 88.8602 64.1667L84.669 59.8733ZM82.6844 61.1112C81.9306 61.4021 81.0426 61.57 79.9846 61.57V67.57C81.6866 67.57 83.3186 67.2979 84.8448 66.7088L82.6844 61.1112ZM83.3671 41.1835C83.8641 40.3551 84.2785 39.6268 84.5979 39.0109L79.2713 36.249C79.0307 36.7132 78.6851 37.3249 78.2221 38.0965L83.3671 41.1835ZM84.6179 38.9716C84.9485 38.3105 85.2316 37.6407 85.4192 36.9842L79.65 35.3358C79.5976 35.5193 79.4808 35.8295 79.2513 36.2884L84.6179 38.9716ZM85.4192 36.9842C85.5952 36.3681 85.7146 35.7048 85.7146 35.02H79.7146C79.7146 35.0152 79.714 35.1119 79.65 35.3358L85.4192 36.9842ZM85.7146 35.02C85.7146 33.9772 85.3781 32.8409 84.4759 31.9387L80.2333 36.1813C80.0483 35.9963 79.9049 35.7715 79.8156 35.5334C79.7298 35.3045 79.7146 35.1196 79.7146 35.02H85.7146ZM84.5661 32.0328C83.7143 31.1036 82.5866 30.7 81.4846 30.7V36.7C81.3284 36.7 81.0933 36.673 80.8251 36.5621C80.5498 36.4482 80.3179 36.2778 80.1431 36.0872L84.5661 32.0328ZM81.4846 30.7C80.5313 30.7 79.5616 30.979 78.7255 31.6221L82.3837 36.3779C82.2426 36.4864 82.0783 36.5736 81.9031 36.6301C81.731 36.6856 81.5847 36.7 81.4846 36.7V30.7ZM78.847 31.5334C77.9538 32.1518 77.4331 33.0062 77.1396 33.8029L82.7696 35.8771C82.7561 35.9138 82.6354 36.2082 82.2622 36.4666L78.847 31.5334ZM77.1586 33.7527C76.846 34.5565 76.7446 35.389 76.7446 36.16H82.7446C82.7446 36.0324 82.7533 35.9522 82.7599 35.9113C82.7663 35.8707 82.7687 35.881 82.7506 35.9273L77.1586 33.7527ZM76.7446 36.16C76.7446 36.7614 76.8049 37.3585 76.9229 37.9483L82.8064 36.7716C82.7643 36.5615 82.7446 36.3586 82.7446 36.16H76.7446ZM76.9634 38.1235C77.0885 38.5988 77.2375 39.0701 77.4096 39.5371L83.0396 37.4629C82.9317 37.1699 82.8408 36.8812 82.7658 36.5965L76.9634 38.1235ZM77.4597 39.6642C77.6718 40.1678 77.9191 40.6608 78.1983 41.1431L83.3909 38.1369C83.2301 37.8592 83.0975 37.5922 82.9895 37.3358L77.4597 39.6642Z" fill="#3F9BBF" mask="url(#path-2-outside-1_66_25)"/>
</svg>
